<svg width="1200" height="400" viewBox="0 0 1200 400" fill="none" xmlns="http://www.w3.org/2000/svg">
<path d="M705.994 320.995L608.925 86.6807C608.161 84.5453 607.756 82.2991 607.728 80.0327C607.538 75.225 609.252 70.5353 612.502 66.9722C614.166 65.2753 616.176 63.9524 618.397 63.0925C620.618 62.2325 622.997 61.8553 625.377 61.9861C628.983 62.0339 632.485 63.1954 635.398 65.3102C638.468 67.5623 640.872 70.5954 642.358 74.091L734.667 303.378L826.921 74.1049C828.406 70.6089 830.81 67.5756 833.88 65.324C836.794 63.2093 840.296 62.0477 843.902 62C846.281 61.8691 848.661 62.2463 850.882 63.1063C853.102 63.9663 855.112 65.2891 856.777 66.986C860.026 70.5491 861.74 75.2388 861.551 80.0465C861.522 82.313 861.118 84.5592 860.354 86.6945L763.242 320.995C761.575 326.143 758.334 330.644 753.973 333.871C749.611 337.099 744.346 338.892 738.912 339H730.325C724.89 338.892 719.625 337.099 715.264 333.871C710.903 330.644 707.662 326.143 705.994 320.995Z" fill="url(#paint0_linear_213_141)"/>
<path d="M902.765 331.881C901.117 330.232 899.824 328.267 898.962 326.105C898.101 323.943 897.69 321.63 897.754 319.305V81.9025C897.668 77.1428 899.468 72.5406 902.765 69.0912C904.378 67.3802 906.341 66.0317 908.52 65.136C910.7 64.2404 913.046 63.8181 915.403 63.8974H1073.13C1075.36 63.8348 1077.58 64.2473 1079.64 65.1072C1081.69 65.9671 1083.54 67.2546 1085.06 68.8835C1086.68 70.407 1087.96 72.2493 1088.82 74.293C1089.68 76.3366 1090.11 78.5366 1090.07 80.7529C1090.13 82.9375 1089.72 85.1094 1088.85 87.1182C1087.99 89.127 1086.69 90.9247 1085.06 92.3869C1083.48 93.9231 1081.62 95.1338 1079.57 95.9491C1077.52 96.7645 1075.34 97.1684 1073.13 97.1375H933.539V183.534H1059C1061.23 183.472 1063.45 183.885 1065.51 184.745C1067.57 185.605 1069.41 186.892 1070.93 188.52C1072.53 190.058 1073.8 191.903 1074.66 193.943C1075.52 195.983 1075.96 198.176 1075.94 200.389C1076 202.574 1075.59 204.746 1074.72 206.755C1073.86 208.763 1072.56 210.561 1070.93 212.023C1069.36 213.559 1067.49 214.77 1065.44 215.585C1063.4 216.401 1061.21 216.805 1059 216.774H933.539V303.655H1073.13C1075.36 303.592 1077.58 304.005 1079.64 304.865C1081.69 305.725 1083.54 307.012 1085.06 308.641C1086.68 310.164 1087.96 312.007 1088.82 314.05C1089.68 316.094 1090.11 318.294 1090.07 320.51C1090.13 322.695 1089.72 324.867 1088.85 326.876C1087.99 328.884 1086.69 330.682 1085.06 332.144C1083.48 333.68 1081.62 334.891 1079.57 335.707C1077.52 336.522 1075.34 336.926 1073.13 336.895H915.403C913.052 337.064 910.694 336.701 908.505 335.832C906.316 334.964 904.353 333.613 902.765 331.881Z" fill="url(#paint1_linear_213_141)"/>
<path d="M630.861 314.319L533.791 80.005C532.123 74.8575 528.883 70.3561 524.521 67.1285C520.16 63.901 514.895 62.1081 509.461 62H500.873C495.439 62.1081 490.174 63.901 485.813 67.1285C481.451 70.3561 478.211 74.8575 476.543 80.005L434.327 182.066H402.314C397.714 182.117 393.318 183.967 390.078 187.217C386.838 190.467 385.014 194.856 384.999 199.434V199.669C385.025 204.256 386.867 208.649 390.127 211.892C393.387 215.136 397.801 216.97 402.412 216.995H419.587L379.223 314.319C378.459 316.455 378.055 318.701 378.026 320.967C377.835 325.775 379.549 330.466 382.8 334.028C384.464 335.725 386.474 337.048 388.695 337.908C390.916 338.768 393.296 339.145 395.675 339.014C399.281 338.966 402.783 337.805 405.696 335.69C408.767 333.438 411.171 330.405 412.656 326.909L457.015 217.009H487.539C492.149 216.984 496.563 215.15 499.823 211.906C503.083 208.662 504.926 204.27 504.951 199.683V199.198C504.926 194.611 503.083 190.218 499.823 186.975C496.563 183.731 492.149 181.897 487.539 181.872H471.087L505.188 97.6084L597.497 326.895C598.983 330.391 601.387 333.424 604.457 335.676C607.37 337.791 610.872 338.952 614.478 339C616.858 339.131 619.237 338.754 621.458 337.894C623.679 337.034 625.689 335.711 627.353 334.014C630.604 330.452 632.318 325.761 632.127 320.953C632.193 318.677 631.761 316.413 630.861 314.319Z" fill="url(#paint2_linear_213_141)"/>
<path d="M340.82 314.32L243.751 80.0055C242.083 74.858 238.842 70.3566 234.481 67.1291C230.12 63.9015 224.855 62.1087 219.42 62.0005H210.833C205.398 62.1087 200.133 63.9015 195.772 67.1291C191.411 70.3566 188.17 74.858 186.503 80.0055L144.287 182.108H112.274C107.68 182.159 103.291 184.003 100.052 187.244C96.8133 190.486 94.984 194.863 94.9587 199.434V199.67C94.9843 204.257 96.827 208.649 100.087 211.893C103.347 215.137 107.761 216.97 112.371 216.996H129.505L89.1406 314.32C88.3767 316.455 87.9723 318.701 87.9436 320.968C87.7527 325.776 89.4672 330.466 92.7178 334.028C94.3822 335.725 96.3922 337.048 98.6128 337.908C100.833 338.768 103.213 339.145 105.593 339.014C109.199 338.967 112.701 337.805 115.614 335.69C118.685 333.439 121.089 330.406 122.573 326.91L166.933 217.01H197.707C202.322 216.988 206.742 215.154 210.005 211.907C213.268 208.66 215.111 204.262 215.133 199.67V199.199C215.108 194.611 213.265 190.219 210.005 186.975C206.745 183.731 202.331 181.898 197.721 181.872H181.255L215.12 97.6089L307.429 326.896C308.914 330.392 311.318 333.425 314.388 335.677C317.302 337.791 320.804 338.953 324.41 339.001C326.789 339.131 329.169 338.754 331.39 337.894C333.61 337.034 335.62 335.711 337.285 334.015C340.535 330.452 342.25 325.762 342.059 320.954C342.133 318.68 341.71 316.416 340.82 314.32Z" fill="url(#paint3_linear_213_141)"/>
<defs>
<linearGradient id="paint0_linear_213_141" x1="-2398.8" y1="413.6" x2="969.457" y2="-1938.48" gradientUnits="userSpaceOnUse">
<stop stop-color="#30BAC6"/>
<stop offset="1" stop-color="#B6509E"/>
</linearGradient>
<linearGradient id="paint1_linear_213_141" x1="-4857.6" y1="526" x2="168.777" y2="-2173.19" gradientUnits="userSpaceOnUse">
<stop stop-color="#30BAC6"/>
<stop offset="1" stop-color="#B6509E"/>
</linearGradient>
<linearGradient id="paint2_linear_213_141" x1="-1347.6" y1="370.4" x2="2015.38" y2="-1980.37" gradientUnits="userSpaceOnUse">
<stop stop-color="#30BAC6"/>
<stop offset="1" stop-color="#B6509E"/>
</linearGradient>
<linearGradient id="paint3_linear_213_141" x1="-61.1999" y1="270.8" x2="3299.76" y2="-2081.11" gradientUnits="userSpaceOnUse">
<stop stop-color="#30BAC6"/>
<stop offset="1" stop-color="#B6509E"/>
</linearGradient>
</defs>
</svg>
