<svg width="1200" height="400" viewBox="0 0 1200 400" fill="none" xmlns="http://www.w3.org/2000/svg">
<path d="M177.298 144.149C177.298 134.249 173.778 130.921 167.302 130.921C166.386 130.921 165.753 130.331 165.753 129.573C165.753 128.815 166.386 128.225 167.302 128.225C172.476 128.225 177.861 128.604 182.894 128.604C194.439 128.604 205.455 128.225 216.894 128.225C234 128.225 241.532 137.746 241.532 150.426C241.649 154.411 240.658 158.33 238.716 161.569C236.774 164.809 233.989 167.187 230.797 168.33C230.48 168.33 230.269 168.709 230.269 168.962C230.269 169.215 230.48 169.425 230.797 169.552C239.878 172.416 245.862 179.915 245.862 190.615C245.862 206.076 237.273 214.67 218.83 214.67C206.652 214.67 195.213 214.333 183.07 214.333C178.001 214.333 172.511 214.67 167.478 214.67C166.562 214.67 165.929 214.08 165.929 213.322C165.929 212.563 166.562 211.974 167.478 211.974C173.883 211.974 177.474 208.646 177.474 198.788L177.298 144.149ZM191.376 137.746C189.405 137.746 188.701 138.588 188.701 140.947V162.011C188.701 164.328 189.405 165.339 191.376 165.339H214.219C225.236 165.339 229.882 160.157 229.882 152.111C229.882 142.127 225.236 137.914 213.621 137.914L191.376 137.746ZM216.929 205.149C228.369 205.149 233.226 199.841 233.226 190.952C233.226 180.589 227.453 174.649 214.043 174.649H191.236C189.265 174.649 188.561 175.66 188.561 177.977V198.746C188.561 203.422 190.004 205.149 193.805 205.149H216.929Z" fill="#8C433C"/>
<path d="M298.798 180.041C298.121 178.96 297.228 178.1 296.201 177.54C295.174 176.981 294.046 176.74 292.92 176.84H280.742C280.489 176.798 280.231 176.827 279.988 176.924C279.746 177.021 279.526 177.185 279.345 177.401C279.165 177.617 279.028 177.881 278.947 178.171C278.865 178.461 278.841 178.769 278.876 179.072V198.704C278.876 208.561 282.396 211.889 288.767 211.889C289.788 211.889 290.421 212.521 290.421 213.237C290.421 213.954 289.788 214.586 288.767 214.586C283.734 214.586 278.208 214.248 273.21 214.248C268.212 214.248 262.651 214.586 257.617 214.586C256.702 214.586 256.069 213.996 256.069 213.237C256.069 212.479 256.702 211.889 257.617 211.889C264.023 211.889 267.613 208.561 267.613 198.704V144.149C267.613 134.249 264.094 130.921 257.617 130.921C256.843 130.921 256.104 130.331 256.104 129.489C256.104 128.646 256.737 128.141 257.653 128.141C262.827 128.141 268.212 128.52 273.245 128.52C283.03 128.52 293.237 128.141 303.022 128.141C324.386 128.141 333.96 135.766 333.96 152.575C333.96 168.119 325.618 174.902 311.786 176.376C311.082 176.376 310.765 177.008 310.765 177.514C310.769 177.721 310.809 177.925 310.881 178.114C310.954 178.302 311.058 178.471 311.187 178.609L324.879 198.619C331.918 208.477 335.614 211.805 340.858 211.805C341.809 211.805 342.407 212.437 342.407 213.153C342.407 213.869 341.809 214.501 340.858 214.501C335.614 214.501 330.299 214.164 325.196 214.164C320.092 214.164 314.637 214.501 309.533 214.501C308.583 214.501 307.984 213.911 307.984 213.153C307.984 212.395 308.583 211.805 309.533 211.805C313.334 211.805 315.094 210.836 315.094 208.224C314.437 204.058 312.744 200.226 310.237 197.229L298.798 180.041ZM304.183 167.403C316.221 167.403 321.395 163.612 321.395 153.249C321.395 140.947 314.285 137.914 301.86 137.914H281.692C279.721 137.914 279.017 138.757 279.017 141.116V165.423C279.012 165.692 279.053 165.96 279.139 166.208C279.225 166.457 279.353 166.682 279.515 166.868C279.677 167.054 279.87 167.198 280.081 167.29C280.293 167.382 280.518 167.421 280.742 167.403H304.183Z" fill="#8C433C"/>
<path d="M391.437 216.313C367.538 216.313 349.693 198.704 349.693 171.405C349.693 144.107 367.538 126.498 391.437 126.498C415.336 126.498 433.11 144.149 433.11 171.616C433.11 199.083 415.371 216.313 391.437 216.313ZM420.298 172.627C420.298 150.047 409.07 136.019 391.437 136.019C373.803 136.019 362.575 150.047 362.575 170.184C362.575 192.764 373.838 206.834 391.437 206.834C409.035 206.834 420.298 192.679 420.298 172.627Z" fill="#8C433C"/>
<path d="M545.53 144.402C546.184 142.175 546.575 139.85 546.691 137.493C546.691 132.901 544.298 130.921 538.631 130.921C537.716 130.921 537.082 130.331 537.082 129.573C537.082 128.815 537.716 128.225 538.631 128.225C543.383 128.225 548.205 128.604 552.956 128.604C557.708 128.604 562.565 128.225 567.035 128.225C568.091 128.225 568.689 128.857 568.689 129.573C568.689 130.289 568.091 130.921 567.035 130.921C562.213 130.921 558.482 134.502 556.018 144.023L541.693 197.44C540.821 200.132 540.334 202.98 540.25 205.865C540.25 210.078 542.291 211.932 547.289 211.932C548.205 211.932 548.838 212.563 548.838 213.28C548.838 213.996 548.205 214.628 547.289 214.628C541.412 214.628 535.322 214.291 529.445 214.291C523.567 214.291 517.513 214.628 511.6 214.628C510.579 214.628 509.981 214.038 509.981 213.28C509.981 212.521 510.579 211.932 511.6 211.932C516.034 211.932 517.794 210.457 517.794 206.876C517.604 203.669 517.048 200.508 516.14 197.482L503.575 149.878C503.363 148.994 503.047 148.741 502.66 148.741C502.272 148.741 501.815 149.12 501.604 149.878L489.038 197.482C488.148 200.514 487.592 203.672 487.384 206.876C487.384 210.457 489.144 211.932 493.684 211.932C494.599 211.932 495.233 212.563 495.233 213.28C495.233 213.996 494.599 214.628 493.684 214.628C487.806 214.628 481.717 214.291 475.734 214.291C469.75 214.291 463.767 214.628 457.889 214.628C456.868 214.628 456.235 214.038 456.235 213.28C456.235 212.521 456.868 211.932 457.889 211.932C462.746 211.932 464.928 210.204 464.928 205.865C464.776 202.986 464.278 200.149 463.45 197.44L449.125 144.023C446.555 134.502 442.86 130.921 438.002 130.921C437.087 130.921 436.454 130.331 436.454 129.573C436.454 128.815 437.087 128.225 438.002 128.225C442.965 128.225 448.104 128.604 453.067 128.604C458.03 128.604 463.063 128.225 467.92 128.225C468.941 128.225 469.539 128.857 469.539 129.573C469.539 130.289 468.941 130.921 467.92 130.921C462.324 130.921 459.965 132.901 459.965 137.493C460.076 139.847 460.455 142.171 461.092 144.402L475.171 198.914C475.699 200.768 476.121 201.526 477.036 201.526C477.951 201.526 478.268 200.684 478.796 198.914L493.121 144.402C493.963 141.694 494.484 138.858 494.67 135.976C494.67 132.311 492.804 130.795 488.792 130.795C487.877 130.795 487.243 130.205 487.243 129.447C487.243 128.689 487.877 128.099 488.792 128.099C493.755 128.099 498.893 128.478 503.856 128.478C508.819 128.478 513.958 128.099 518.921 128.099C519.941 128.099 520.54 128.731 520.54 129.447C520.54 130.163 519.941 130.795 518.921 130.795C513.852 130.795 511.881 132.311 511.881 135.892C512.036 138.767 512.522 141.602 513.324 144.318L527.755 198.83C528.283 200.684 528.6 201.442 529.515 201.442C530.43 201.442 530.852 200.684 531.38 198.83L545.53 144.402Z" fill="#8C433C"/>
<path d="M598.185 143.391C597.657 142.675 597.269 142.422 596.847 142.422C596.425 142.422 595.932 143.012 595.932 144.402V198.704C595.932 208.561 599.452 211.889 605.928 211.889C606.843 211.889 607.477 212.521 607.477 213.237C607.477 213.954 606.843 214.586 605.928 214.586C600.965 214.586 595.826 214.249 590.758 214.249C585.69 214.249 580.656 214.586 575.694 214.586C574.778 214.586 574.18 213.996 574.18 213.237C574.18 212.479 574.778 211.889 575.694 211.889C582.099 211.889 585.725 208.561 585.725 198.704V144.149C585.725 134.249 582.205 130.921 575.694 130.921C574.778 130.921 574.18 130.331 574.18 129.573C574.18 128.815 574.778 128.225 575.694 128.225C579.424 128.225 583.542 128.604 587.273 128.604C591.004 128.604 594.876 128.351 598.607 128.351C599.468 128.21 600.344 128.369 601.131 128.81C601.918 129.251 602.581 129.955 603.042 130.837L642.427 190.531C642.85 191.289 643.237 191.542 643.659 191.542C644.082 191.542 644.469 191.037 644.469 189.815V144.149C644.469 134.249 640.949 130.921 634.473 130.921C633.452 130.921 632.924 130.331 632.924 129.573C632.924 128.815 633.452 128.225 634.473 128.225C639.436 128.225 644.68 128.604 649.537 128.604C654.394 128.604 659.639 128.225 664.707 128.225C665.622 128.225 666.221 128.857 666.221 129.573C666.221 130.289 665.622 130.921 664.707 130.921C658.301 130.921 654.676 134.249 654.676 144.149V198.914C654.676 208.772 658.196 212.1 664.707 212.1C665.622 212.1 666.221 212.732 666.221 213.448C666.221 214.164 665.622 214.796 664.707 214.796C659.639 214.796 654.605 214.459 649.537 214.459C644.469 214.459 639.436 214.796 634.473 214.796C633.452 214.796 632.924 214.206 632.924 213.448C632.924 212.69 633.452 212.1 634.473 212.1C637.992 212.1 640.773 211.342 640.773 209.151C640.709 208.239 640.414 207.372 639.928 206.666L598.185 143.391Z" fill="#8C433C"/>
<path d="M714.969 216.313C699.376 216.313 693.322 211.889 688.782 211.889C688.012 211.82 687.243 212.032 686.576 212.499C685.91 212.965 685.378 213.664 685.051 214.501C684.769 215.217 684.453 215.47 684.03 215.47C683.608 215.47 683.115 215.091 682.904 214.122C680.684 204.741 678.028 195.514 674.949 186.487C674.829 186.123 674.758 185.739 674.738 185.349C674.738 184.633 675.055 184.38 675.477 184.38C675.9 184.38 676.392 184.76 677.026 185.855C685.684 202.032 699.2 206.918 715.18 206.918C725.985 206.918 733.306 202.453 733.306 191.374C733.306 166.097 679.49 189.267 679.49 151.732C679.49 136.819 690.049 126.456 708.07 126.456C714.835 126.859 721.578 127.674 728.273 128.899C729.063 129.037 729.868 128.809 730.522 128.261C731.176 127.713 731.631 126.886 731.793 125.95C731.863 125.688 732.006 125.462 732.198 125.309C732.39 125.156 732.619 125.085 732.849 125.108C733.341 125.108 733.658 125.487 733.975 126.456C736.228 134.881 738.691 143.728 741.507 151.985C741.583 152.401 741.583 152.832 741.507 153.249C741.522 153.369 741.516 153.493 741.487 153.61C741.459 153.727 741.409 153.836 741.342 153.928C741.275 154.02 741.192 154.094 741.099 154.144C741.006 154.194 740.905 154.219 740.803 154.217C740.275 154.217 739.853 153.838 739.255 152.617C732.884 140.4 723.486 135.766 708.316 135.766C694.625 135.766 689.979 142.169 689.979 150.3C689.979 173.133 744.428 150.932 744.428 189.815C744.569 209.53 729.822 216.313 714.969 216.313Z" fill="#8C433C"/>
<path d="M784.905 141.2C784.905 138.841 784.166 137.956 782.23 137.956H774.592C762.837 137.956 759.035 142.675 754.917 153.628C754.495 154.892 753.967 155.229 753.545 155.229C753.429 155.23 753.314 155.201 753.208 155.145C753.102 155.088 753.008 155.005 752.931 154.902C752.855 154.798 752.797 154.675 752.763 154.543C752.73 154.41 752.72 154.271 752.735 154.133C752.692 153.77 752.692 153.401 752.735 153.038C754.812 144.276 756.536 135.26 758.085 126.372C758.085 125.529 758.613 125.023 759.106 125.023C759.329 125.036 759.545 125.121 759.731 125.269C759.917 125.418 760.066 125.624 760.162 125.866C760.971 127.509 762.203 127.972 766.356 128.225C773.959 128.604 780.435 128.604 790.361 128.604C800.286 128.604 806.868 128.604 814.471 128.225C818.624 127.972 819.856 127.509 820.665 125.866C820.761 125.624 820.91 125.418 821.096 125.269C821.282 125.121 821.498 125.036 821.721 125.023C822.214 125.023 822.636 125.529 822.742 126.372C824.291 135.26 826.015 144.276 828.092 153.038C828.135 153.401 828.135 153.77 828.092 154.133C828.107 154.271 828.097 154.41 828.064 154.543C828.03 154.675 827.972 154.798 827.896 154.902C827.819 155.005 827.725 155.088 827.619 155.145C827.513 155.201 827.398 155.23 827.282 155.229C826.755 155.229 826.332 154.892 825.91 153.628C822.003 142.675 818.202 137.914 806.34 137.914H798.808C796.872 137.914 796.133 138.799 796.133 141.158V198.704C796.133 208.561 799.653 211.889 806.129 211.889C807.079 211.889 807.678 212.521 807.678 213.237C807.678 213.954 807.079 214.586 806.129 214.586C800.99 214.586 795.57 214.248 790.466 214.248C785.363 214.248 779.907 214.586 774.909 214.586C773.959 214.586 773.361 213.996 773.361 213.237C773.361 212.479 773.959 211.889 774.909 211.889C781.28 211.889 784.905 208.561 784.905 198.704V141.2Z" fill="#8C433C"/>
<path d="M878.67 216.313C854.736 216.313 836.856 198.704 836.856 171.616C836.856 144.528 854.701 126.709 878.635 126.709C902.569 126.709 920.308 144.149 920.308 171.616C920.308 199.083 902.569 216.313 878.67 216.313ZM907.532 172.627C907.532 150.047 896.304 136.019 878.67 136.019C861.037 136.019 849.773 150.047 849.773 170.184C849.773 192.764 861.037 206.834 878.67 206.834C896.304 206.834 907.532 192.679 907.532 172.627Z" fill="#8C433C"/>
<path d="M953.992 143.391C953.841 143.123 953.643 142.898 953.412 142.731C953.181 142.563 952.923 142.458 952.655 142.422C952.127 142.422 951.704 143.012 951.704 144.402V198.704C951.704 208.561 955.224 211.889 961.7 211.889C962.651 211.889 963.249 212.521 963.249 213.237C963.249 213.954 962.651 214.586 961.7 214.586C956.773 214.586 951.599 214.249 946.565 214.249C941.532 214.249 936.464 214.586 931.501 214.586C930.586 214.586 929.952 213.996 929.952 213.237C929.952 212.479 930.586 211.889 931.501 211.889C937.907 211.889 941.497 208.561 941.497 198.704V144.149C941.497 134.249 937.977 130.921 931.501 130.921C930.586 130.921 929.952 130.331 929.952 129.573C929.952 128.815 930.586 128.225 931.501 128.225C935.232 128.225 939.35 128.604 943.046 128.604C946.741 128.604 950.683 128.351 954.414 128.351C955.275 128.215 956.15 128.377 956.936 128.817C957.722 129.258 958.386 129.959 958.849 130.837L998.2 190.531C998.317 190.819 998.497 191.064 998.719 191.241C998.942 191.419 999.2 191.523 999.467 191.542C999.854 191.542 1000.28 191.037 1000.28 189.815V144.149C1000.28 134.249 996.756 130.921 990.28 130.921C989.259 130.921 988.732 130.331 988.732 129.573C988.732 128.815 989.259 128.225 990.28 128.225C995.208 128.225 1000.49 128.604 1005.31 128.604C1010.13 128.604 1015.45 128.225 1020.48 128.225C1021.43 128.225 1022.03 128.857 1022.03 129.573C1022.03 130.289 1021.43 130.921 1020.48 130.921C1014.07 130.921 1010.48 134.249 1010.48 144.149V198.914C1010.48 208.772 1014 212.1 1020.48 212.1C1021.43 212.1 1022.03 212.732 1022.03 213.448C1022.03 214.164 1021.43 214.796 1020.48 214.796C1015.45 214.796 1010.38 214.459 1005.31 214.459C1000.24 214.459 995.208 214.796 990.28 214.796C989.259 214.796 988.732 214.206 988.732 213.448C988.732 212.69 989.259 212.1 990.28 212.1C993.8 212.1 996.545 211.342 996.545 209.151C996.496 208.243 996.213 207.375 995.736 206.666L953.992 143.391Z" fill="#8C433C"/>
<path d="M1083.83 205.318C1095.59 205.318 1101.26 199.504 1106.54 189.646C1107.03 188.551 1107.56 188.045 1108.19 188.045C1108.31 188.044 1108.42 188.073 1108.53 188.129C1108.63 188.186 1108.73 188.269 1108.8 188.372C1108.88 188.476 1108.94 188.599 1108.97 188.731C1109.01 188.864 1109.02 189.003 1109 189.141C1109.01 189.576 1108.94 190.009 1108.79 190.405C1105.27 199.125 1102.52 207.803 1099.71 216.692C1099.71 217.408 1099.32 218.04 1098.79 218.04C1098.55 218.045 1098.32 217.963 1098.12 217.805C1097.91 217.648 1097.76 217.421 1097.67 217.155C1096.86 215.554 1095.59 214.923 1091.47 214.796C1077.57 214.459 1061.48 214.459 1047.16 214.459C1042.09 214.459 1036.6 214.796 1031.57 214.796C1030.65 214.796 1030.02 214.206 1030.02 213.448C1030.02 212.69 1030.65 212.1 1031.57 212.1C1037.97 212.1 1041.56 208.772 1041.56 198.914V144.149C1041.56 134.249 1038.04 130.921 1031.57 130.921C1030.65 130.921 1030.02 130.331 1030.02 129.573C1030.02 128.815 1030.65 128.225 1031.57 128.225C1036.74 128.225 1042.13 128.604 1047.16 128.604C1061.24 128.604 1076.72 128.604 1090.13 128.225C1094.25 128.225 1095.48 127.509 1096.33 125.866C1096.65 125.276 1096.93 125.023 1097.35 125.023C1097.77 125.023 1098.26 125.529 1098.37 126.372C1100.34 134.797 1102.42 142.927 1104.88 150.932C1105.02 151.273 1105.09 151.647 1105.09 152.027C1105.1 152.169 1105.09 152.311 1105.05 152.446C1105.01 152.581 1104.95 152.705 1104.87 152.812C1104.79 152.918 1104.7 153.004 1104.59 153.065C1104.48 153.125 1104.37 153.159 1104.25 153.164C1103.65 153.164 1103.23 152.785 1102.7 151.563C1098.58 141.79 1093.79 137.914 1082 137.914H1055.5C1053.53 137.914 1052.83 138.757 1052.83 141.116V162.474C1052.83 164.791 1053.53 165.676 1055.5 165.676H1073.94C1081.26 165.676 1085.59 161.463 1085.59 154.554C1085.59 153.459 1086.02 152.701 1086.72 152.701C1087.42 152.701 1087.78 153.459 1087.78 154.554C1087.78 159.863 1087.46 164.791 1087.46 170.099C1087.46 175.407 1087.78 180.336 1087.78 185.644C1087.78 186.782 1087.25 187.498 1086.72 187.498C1086.19 187.498 1085.59 186.782 1085.59 185.644C1085.59 178.735 1081.26 174.565 1073.94 174.565H1055.5C1053.53 174.565 1052.83 175.407 1052.83 177.766V198.83C1052.83 203.506 1054.27 205.233 1058.07 205.233L1083.83 205.318Z" fill="#8C433C"/>
<path d="M441.135 279.419C440.76 278.815 440.263 278.336 439.69 278.026C439.117 277.717 438.488 277.587 437.862 277.65H431.104C430.4 277.65 430.048 278.029 430.048 278.871V289.867C430.048 295.385 432.019 297.281 435.609 297.281C436.172 297.281 436.524 297.618 436.524 298.039C436.524 298.46 436.172 298.797 435.609 298.797C432.758 298.797 429.766 298.797 426.88 298.797C423.994 298.797 421.037 298.797 418.151 298.797C417.623 298.797 417.271 298.46 417.271 298.039C417.271 297.618 417.623 297.281 418.151 297.281C421.671 297.281 423.748 295.385 423.748 289.867V259.324C423.748 253.764 421.741 251.91 418.151 251.91C417.623 251.91 417.271 251.573 417.271 251.152C417.271 250.73 417.623 250.393 418.151 250.393C421.037 250.393 424.029 250.393 426.88 250.393C432.371 250.393 438.073 250.393 443.564 250.393C455.531 250.393 460.881 254.606 460.881 264.085C460.881 272.805 456.199 276.723 448.491 277.439C448.069 277.439 447.893 277.776 447.893 278.029C447.896 278.149 447.919 278.266 447.962 278.375C448.004 278.484 448.065 278.581 448.139 278.661L455.812 289.867C459.684 295.385 461.831 297.281 464.752 297.281C465.28 297.281 465.632 297.618 465.632 298.039C465.632 298.46 465.28 298.797 464.752 298.797C461.831 298.797 458.874 298.797 455.988 298.797C453.102 298.797 450.11 298.797 447.189 298.797C446.696 298.797 446.344 298.46 446.344 298.039C446.344 297.618 446.696 297.281 447.189 297.281C449.336 297.281 450.321 296.733 450.321 295.259C449.955 292.929 449.011 290.786 447.611 289.108L441.135 279.419ZM444.162 272.384C450.92 272.384 453.806 270.235 453.806 264.422C453.806 257.513 449.794 255.701 442.86 255.701H431.561C430.47 255.701 430.048 256.207 430.048 257.513V271.12C430.031 271.291 430.047 271.464 430.094 271.627C430.141 271.789 430.218 271.937 430.32 272.059C430.421 272.18 430.545 272.273 430.681 272.329C430.816 272.385 430.961 272.404 431.104 272.384H444.162Z" fill="#8C433C"/>
<path d="M504.419 293.447C507.025 293.624 509.616 292.89 511.879 291.334C514.141 289.778 515.976 287.468 517.161 284.685C517.442 284.053 517.724 283.8 518.076 283.8C518.139 283.8 518.202 283.815 518.26 283.846C518.317 283.876 518.37 283.92 518.413 283.975C518.456 284.031 518.488 284.096 518.509 284.167C518.53 284.239 518.538 284.315 518.533 284.39C518.576 284.626 518.576 284.87 518.533 285.106C516.598 289.993 515.014 294.837 513.43 299.808C513.43 300.23 513.219 300.567 512.902 300.567C512.77 300.573 512.639 300.532 512.526 300.45C512.414 300.367 512.324 300.247 512.268 300.103C511.811 299.219 511.142 298.84 508.749 298.797C500.935 298.797 491.924 298.797 483.899 298.797C481.084 298.797 478.057 298.797 475.171 298.797C474.678 298.797 474.326 298.46 474.326 298.039C474.326 297.618 474.678 297.281 475.171 297.281C478.69 297.281 480.802 295.385 480.802 289.867V259.324C480.802 253.764 478.761 251.91 475.171 251.91C474.678 251.91 474.326 251.573 474.326 251.152C474.326 250.73 474.678 250.393 475.171 250.393C478.057 250.393 481.084 250.393 483.899 250.393C491.748 250.393 500.477 250.393 508.009 250.393C510.297 250.393 511.001 249.972 511.529 249.088C512.057 248.203 511.881 248.582 512.092 248.582C512.304 248.582 512.62 248.877 512.691 249.34C513.782 254.059 514.943 258.608 516.21 263.116C516.26 263.322 516.26 263.541 516.21 263.748C516.216 263.827 516.207 263.906 516.184 263.981C516.161 264.055 516.125 264.123 516.078 264.179C516.031 264.235 515.975 264.278 515.912 264.306C515.85 264.333 515.784 264.344 515.718 264.338C515.401 264.338 515.155 264.338 514.873 263.453C512.55 257.976 509.84 255.701 503.258 255.701H488.405C487.314 255.701 486.891 256.207 486.891 257.513V269.477C486.891 270.783 487.314 271.288 488.405 271.288H498.964C503.047 271.288 505.475 268.929 505.475 265.054C505.475 264.422 505.722 264.001 506.109 264.001C506.496 264.001 506.707 264.422 506.707 265.054C506.707 268.003 506.531 270.783 506.531 273.774C506.531 276.765 506.707 279.503 506.707 282.452C506.707 283.084 506.426 283.505 506.109 283.505C505.792 283.505 505.475 283.084 505.475 282.452C505.475 278.619 503.047 276.259 498.964 276.259H488.405C487.314 276.259 486.891 276.723 486.891 278.029V289.867C486.891 292.478 487.701 293.447 489.848 293.447H504.419Z" fill="#8C433C"/>
<path d="M551.76 299.766C546.812 299.502 541.897 298.669 537.082 297.281C536.657 297.245 536.231 297.363 535.862 297.618C535.492 297.873 535.194 298.254 535.006 298.713C535.006 299.134 534.689 299.261 534.443 299.261C534.196 299.261 533.915 299.261 533.809 298.503C532.555 293.25 531.051 288.088 529.304 283.042C529.271 282.833 529.271 282.619 529.304 282.41C529.304 281.989 529.304 281.862 529.691 281.862C530.078 281.862 530.219 281.862 530.571 282.663C535.428 291.72 542.996 294.585 551.936 294.585C557.989 294.585 562.108 292.099 562.108 285.864C562.108 271.836 531.944 284.685 531.944 263.663C531.944 255.238 537.857 249.425 547.958 249.425C551.742 249.651 555.513 250.115 559.257 250.815C560.559 250.815 560.876 250.309 561.298 249.13C561.331 248.985 561.405 248.859 561.508 248.774C561.612 248.689 561.737 248.651 561.861 248.666C562.178 248.666 562.319 248.877 562.495 249.425C563.797 254.185 565.17 259.114 566.718 263.748C566.78 263.966 566.78 264.203 566.718 264.422C566.723 264.492 566.716 264.562 566.697 264.628C566.678 264.694 566.648 264.755 566.608 264.807C566.568 264.858 566.52 264.899 566.466 264.927C566.413 264.955 566.355 264.97 566.296 264.969C566.014 264.969 565.768 264.969 565.416 264.085C561.896 257.218 556.582 254.606 548.099 254.606C540.426 254.606 537.822 258.187 537.822 262.779C537.822 275.417 568.302 263.116 568.302 284.896C568.408 296.017 560.172 299.766 551.76 299.766Z" fill="#8C433C"/>
<path d="M609.307 293.447C611.93 293.655 614.546 292.935 616.83 291.377C619.115 289.819 620.966 287.492 622.154 284.685C622.435 284.053 622.752 283.8 623.069 283.8C623.2 283.8 623.325 283.862 623.417 283.973C623.51 284.084 623.562 284.234 623.562 284.39C623.617 284.624 623.617 284.872 623.562 285.106C621.661 289.993 620.042 294.837 618.493 299.808C618.493 300.23 618.247 300.567 617.965 300.567C617.833 300.573 617.703 300.532 617.59 300.45C617.477 300.367 617.387 300.247 617.332 300.103C616.874 299.219 616.17 298.84 613.812 298.797C605.998 298.797 596.988 298.797 588.963 298.797C586.112 298.797 583.12 298.797 580.234 298.797C579.706 298.797 579.354 298.46 579.354 298.039C579.354 297.618 579.706 297.281 580.234 297.281C583.754 297.281 585.83 295.385 585.83 289.867V259.324C585.83 253.764 583.824 251.91 580.234 251.91C579.706 251.91 579.354 251.573 579.354 251.152C579.354 250.73 579.706 250.393 580.234 250.393C583.12 250.393 586.112 250.393 588.963 250.393C596.812 250.393 605.541 250.393 613.038 250.393C615.361 250.393 616.065 249.972 616.557 249.088C617.05 248.203 616.909 248.582 617.121 248.582C617.332 248.582 617.649 248.877 617.719 249.34C618.81 254.059 619.972 258.608 621.239 263.116C621.277 263.324 621.277 263.54 621.239 263.748C621.25 263.825 621.246 263.903 621.227 263.978C621.209 264.053 621.176 264.121 621.132 264.178C621.088 264.236 621.033 264.28 620.972 264.307C620.911 264.335 620.846 264.345 620.781 264.338C620.429 264.338 620.218 264.338 619.901 263.453C617.613 257.976 614.903 255.701 608.321 255.701H593.468C592.377 255.701 591.955 256.207 591.955 257.513V269.477C591.955 270.783 592.377 271.288 593.468 271.288H603.816C607.899 271.288 610.328 268.929 610.328 265.054C610.328 264.422 610.574 264.001 610.961 264.001C611.348 264.001 611.559 264.422 611.559 265.054C611.559 268.003 611.559 270.783 611.559 273.774C611.559 276.765 611.559 279.503 611.559 282.452C611.559 283.084 611.243 283.505 610.961 283.505C610.68 283.505 610.328 283.084 610.328 282.452C610.328 278.619 607.899 276.259 603.816 276.259H593.468C592.377 276.259 591.955 276.723 591.955 278.029V289.867C591.955 292.478 592.764 293.447 594.911 293.447H609.307Z" fill="#8C433C"/>
<path d="M669.881 288.476C669.721 287.975 669.427 287.551 669.046 287.269C668.664 286.987 668.215 286.864 667.769 286.918H647.531C647.079 286.854 646.622 286.973 646.233 287.255C645.844 287.538 645.545 287.967 645.384 288.476L644.891 289.951C644.334 291.155 644.009 292.494 643.941 293.869C643.941 296.228 645.454 297.281 648.516 297.281C649.08 297.281 649.431 297.618 649.431 298.039C649.431 298.46 649.08 298.797 648.516 298.797C645.701 298.797 643.131 298.797 640.315 298.797C637.5 298.797 635.177 298.797 632.291 298.797C631.763 298.797 631.411 298.46 631.411 298.039C631.411 297.618 631.763 297.281 632.291 297.281C635.001 297.281 636.796 295.132 638.767 289.951L649.889 260.083C650.551 258.581 650.947 256.932 651.051 255.238C651.051 252.963 649.748 251.994 647.073 251.994C646.51 251.994 646.193 251.657 646.193 251.236C646.193 250.815 646.51 250.478 647.073 250.478C650.875 250.478 654.113 250.478 657.984 250.478C661.856 250.478 665.024 250.478 668.86 250.478C669.423 250.478 669.775 250.815 669.775 251.236C669.775 251.657 669.423 251.994 668.86 251.994C666.256 251.994 664.883 252.963 664.883 255.322C664.999 256.981 665.381 258.597 666.009 260.083L677.237 290.035C679.138 295.217 680.757 297.365 683.643 297.365C684.206 297.365 684.558 297.702 684.558 298.123C684.558 298.545 684.206 298.882 683.643 298.882C680.792 298.882 678.223 298.882 675.337 298.882C672.45 298.882 669.599 298.882 666.713 298.882C666.185 298.882 665.833 298.545 665.833 298.123C665.833 297.702 666.185 297.365 666.713 297.365C669.775 297.365 671.289 296.312 671.289 293.953C671.215 292.59 670.916 291.258 670.409 290.035L669.881 288.476ZM659.04 258.987C658.407 257.26 658.16 256.881 657.632 256.881C657.104 256.881 656.893 257.26 656.26 258.987L648.692 279.588C648.552 279.9 648.468 280.245 648.446 280.599C648.446 281.188 648.798 281.399 649.502 281.399H665.728C666.467 281.399 666.819 281.399 666.819 280.599C666.814 280.247 666.741 279.901 666.608 279.588L659.04 258.987Z" fill="#8C433C"/>
<path d="M717.186 279.419C716.803 278.815 716.299 278.336 715.721 278.027C715.143 277.717 714.509 277.588 713.877 277.65H707.12C706.416 277.65 706.099 278.029 706.099 278.871V289.867C706.099 295.385 708.035 297.281 711.625 297.281C712.223 297.281 712.54 297.618 712.54 298.039C712.54 298.46 712.223 298.797 711.625 298.797C708.809 298.797 705.782 298.797 702.896 298.797C700.01 298.797 697.088 298.797 694.167 298.797C693.674 298.797 693.322 298.46 693.322 298.039C693.322 297.618 693.674 297.281 694.167 297.281C697.687 297.281 699.799 295.385 699.799 289.867V259.324C699.799 253.764 697.757 251.91 694.167 251.91C693.674 251.91 693.322 251.573 693.322 251.152C693.322 250.73 693.674 250.393 694.167 250.393C697.088 250.393 700.08 250.393 702.896 250.393C708.387 250.393 714.124 250.393 719.615 250.393C731.546 250.393 736.931 254.606 736.931 264.085C736.931 272.805 732.25 276.723 724.507 277.439C724.12 277.439 723.944 277.776 723.944 278.029C723.938 278.146 723.954 278.264 723.99 278.373C724.027 278.482 724.083 278.58 724.155 278.661L731.863 289.867C735.7 295.385 737.847 297.281 740.803 297.281C741.331 297.281 741.683 297.618 741.683 298.039C741.683 298.46 741.331 298.797 740.803 298.797C737.847 298.797 734.89 298.797 732.004 298.797C729.118 298.797 726.126 298.797 723.24 298.797C722.712 298.797 722.36 298.46 722.36 298.039C722.36 297.618 722.712 297.281 723.24 297.281C725.387 297.281 726.372 296.733 726.372 295.259C726.002 292.922 725.044 290.776 723.627 289.108L717.186 279.419ZM720.178 272.384C726.936 272.384 729.822 270.235 729.822 264.422C729.822 257.513 725.844 255.701 718.911 255.701H707.577C706.486 255.701 706.099 256.207 706.099 257.513V271.12C706.099 271.963 706.416 272.384 707.12 272.384H720.178Z" fill="#8C433C"/>
<path d="M786.771 300.103C786.588 299.562 786.262 299.107 785.842 298.81C785.422 298.513 784.932 298.39 784.448 298.46C781.222 299.121 777.966 299.557 774.698 299.766C761.006 299.766 751.01 289.867 751.01 274.49C751.01 259.114 760.901 249.214 774.311 249.214C777.438 249.439 780.552 249.875 783.638 250.52C784.122 250.59 784.612 250.467 785.032 250.17C785.452 249.873 785.779 249.418 785.961 248.877C786.137 248.54 786.313 248.371 786.524 248.371C786.735 248.371 786.947 248.371 787.123 249.13C788.812 254.522 790.466 259.704 792.613 265.264C792.65 265.487 792.65 265.716 792.613 265.938C792.613 266.084 792.565 266.223 792.479 266.326C792.393 266.428 792.277 266.486 792.156 266.486C791.874 266.486 791.628 266.486 791.276 265.686C789.712 262.139 787.334 259.2 784.422 257.215C781.51 255.23 778.186 254.281 774.839 254.48C772.65 254.264 770.447 254.606 768.376 255.482C766.305 256.358 764.413 257.75 762.824 259.564C761.234 261.379 759.984 263.576 759.155 266.011C758.326 268.445 757.938 271.062 758.015 273.69C757.874 276.45 758.227 279.213 759.049 281.797C759.871 284.381 761.144 286.726 762.783 288.675C764.421 290.624 766.388 292.133 768.552 293.101C770.715 294.069 773.027 294.474 775.332 294.29C778.762 294.475 782.169 293.528 785.179 291.551C788.19 289.575 790.689 286.646 792.402 283.084C792.719 282.452 792.965 282.242 793.247 282.242C793.31 282.241 793.373 282.257 793.431 282.287C793.488 282.317 793.541 282.361 793.584 282.417C793.627 282.472 793.659 282.537 793.68 282.609C793.701 282.68 793.709 282.756 793.704 282.831C793.741 283.054 793.741 283.283 793.704 283.505C791.557 289.024 789.586 294.206 787.932 299.598C787.932 300.188 787.58 300.356 787.334 300.356C787.23 300.37 787.125 300.354 787.027 300.31C786.929 300.266 786.841 300.195 786.771 300.103Z" fill="#8C433C"/>
<path d="M843.579 278.45C843.579 277.144 843.121 276.681 842.03 276.681H818.765C817.674 276.681 817.251 277.144 817.251 278.45V289.867C817.251 295.385 819.222 297.281 822.812 297.281C823.375 297.281 823.727 297.618 823.727 298.039C823.727 298.46 823.375 298.797 822.812 298.797C819.961 298.797 816.97 298.797 814.083 298.797C811.197 298.797 808.241 298.797 805.355 298.797C804.827 298.797 804.475 298.46 804.475 298.039C804.475 297.618 804.827 297.281 805.355 297.281C808.874 297.281 810.951 295.385 810.951 289.867V259.324C810.951 253.764 808.945 251.91 805.355 251.91C804.827 251.91 804.475 251.573 804.475 251.152C804.475 250.73 804.827 250.393 805.355 250.393C808.241 250.393 811.232 250.393 814.083 250.393C816.934 250.393 819.961 250.393 822.812 250.393C823.375 250.393 823.727 250.73 823.727 251.152C823.727 251.573 823.375 251.91 822.812 251.91C819.293 251.91 817.251 253.764 817.251 259.324V269.056C817.251 270.362 817.674 270.867 818.765 270.867H842.03C843.121 270.867 843.579 270.362 843.579 269.056V259.324C843.579 253.764 841.572 251.91 837.982 251.91C837.419 251.91 837.067 251.573 837.067 251.152C837.067 250.73 837.419 250.393 837.982 250.393C840.833 250.393 843.825 250.393 846.711 250.393C849.597 250.393 852.554 250.393 855.44 250.393C855.968 250.393 856.32 250.73 856.32 251.152C856.32 251.573 855.968 251.91 855.44 251.91C851.92 251.91 849.844 253.764 849.844 259.324V289.867C849.844 295.385 851.85 297.281 855.44 297.281C855.968 297.281 856.32 297.618 856.32 298.039C856.32 298.46 855.968 298.797 855.44 298.797C852.554 298.797 849.597 298.797 846.711 298.797C843.825 298.797 840.833 298.797 837.982 298.797C837.419 298.797 837.067 298.46 837.067 298.039C837.067 297.618 837.419 297.281 837.982 297.281C841.502 297.281 843.579 295.385 843.579 289.867V278.45Z" fill="#8C433C"/>
<path d="M391.472 269.646H399.567V259.956H391.472V269.646Z" fill="#8C433C"/>
<path d="M383.377 279.335H391.472L391.472 269.646H383.377V279.335Z" fill="#8C433C"/>
<path d="M391.472 288.982H399.567V279.293H391.472V288.982Z" fill="#8C433C"/>
<path d="M882.12 279.335H874.024V289.024H882.12V279.335Z" fill="#8C433C"/>
<path d="M890.215 269.646H882.12V279.335H890.215V269.646Z" fill="#8C433C"/>
<path d="M882.12 259.956H874.024V269.646H882.12V259.956Z" fill="#8C433C"/>
<path d="M120.243 275.333H107.854L104.052 236.534H124.044L120.243 275.333Z" fill="url(#paint0_radial_227_37)" style="mix-blend-mode:darken"/>
<path d="M104.686 275.333H102.187L96.9778 236.534H99.6175L104.686 275.333Z" fill="url(#paint1_linear_227_37)" style="mix-blend-mode:darken"/>
<path d="M123.446 275.333H125.91L131.119 236.534H128.479L123.446 275.333Z" fill="url(#paint2_linear_227_37)" style="mix-blend-mode:darken"/>
<path d="M143.156 226.381H141.784C141.537 224.865 140.587 224.949 140.024 224.696C137.454 223.643 132.703 218.798 132.703 216.271C130.204 216.271 129.817 214.754 129.183 213.237C127.743 211.732 125.971 210.752 124.08 210.415V209.53H122.355V208.772H121.264V206.961H120.102C120.102 206.329 120.102 205.865 119.856 205.865H119.258V205.655C119.082 205.655 118.976 205.191 118.976 204.601C118.976 204.012 118.976 203.506 119.258 203.506H119.856C119.856 203.506 120.102 203.001 120.102 202.369H121.616C121.792 202.369 121.933 202.074 121.933 201.779C121.933 201.484 121.933 201.189 121.616 201.189H121.229C121.017 200.81 120.63 200.81 120.349 200.726C119.046 200.347 116.583 198.535 116.583 197.566H116.055C116.101 197.175 116.101 196.778 116.055 196.387H115.315V195.291C116.871 194.922 118.277 193.935 119.306 192.49C120.335 191.045 120.925 189.226 120.982 187.329C120.982 186.239 120.794 185.16 120.431 184.16C120.067 183.16 119.536 182.26 118.87 181.516C117.823 180.349 116.514 179.573 115.104 179.283V177.429C122.192 177.591 129.108 174.807 134.674 169.552C137.717 166.656 140.047 162.828 141.417 158.473C142.786 154.119 143.144 149.402 142.452 144.823C141.752 141.442 140.409 138.3 138.529 135.64C136.649 132.981 134.282 130.876 131.612 129.489C128.642 127.781 125.352 127.023 122.065 127.289C118.777 127.554 115.603 128.835 112.852 131.005C110.024 133.239 107.834 136.453 106.576 140.218C105.318 143.983 105.051 148.118 105.812 152.069C107.713 164.707 116.97 166.561 123.411 165.002C125.435 164.691 127.356 163.749 128.98 162.271C130.605 160.792 131.876 158.828 132.668 156.577C133.09 154.978 133.22 153.289 133.05 151.625C132.88 149.961 132.414 148.359 131.682 146.93C130.717 145.2 129.345 143.851 127.74 143.054C126.691 142.57 125.588 142.272 124.467 142.169C122.7 142.055 120.948 142.597 119.448 143.721C117.949 144.844 116.776 146.495 116.09 148.446C115.609 149.855 115.479 151.401 115.717 152.896C115.954 154.391 116.548 155.772 117.427 156.871C115.776 155.806 114.464 154.118 113.696 152.069C113.057 150.517 112.739 148.803 112.77 147.072C112.8 145.342 113.179 143.646 113.872 142.127C114.804 140.293 116.096 138.758 117.635 137.657C119.175 136.556 120.916 135.921 122.707 135.808C125.647 135.69 128.511 136.941 130.697 139.298C132.882 141.655 134.22 144.934 134.427 148.446C134.655 150.05 134.655 151.687 134.427 153.291C133.266 162.938 125.91 169.173 114.893 170.142V167.782H112.394C112.394 167.782 112.394 169.762 112.394 170.268H109.825C105.008 170.083 100.251 168.944 95.7459 166.898C95.9922 166.097 95.7459 165.381 95.5347 165.128L94.9715 164.791H94.514C94.415 164.735 94.3068 164.706 94.1972 164.706C94.0876 164.706 93.9794 164.735 93.8804 164.791C93.6876 164.918 93.5289 165.108 93.4229 165.339C93.4076 165.422 93.4076 165.509 93.4229 165.592C86.6782 161.854 80.8843 156.039 76.6338 148.741C73.1692 142.603 71.1064 135.486 70.6503 128.099H70.8263C71.0503 128.099 71.2652 127.992 71.4236 127.803C71.582 127.613 71.671 127.356 71.671 127.088V126.161C71.6362 125.896 71.5186 125.658 71.3421 125.494C71.1656 125.329 70.9434 125.252 70.7207 125.276H70.5095C70.6295 120.696 71.9467 116.276 74.2756 112.638C75.3936 110.801 76.9517 109.415 78.7432 108.662C80.5348 107.91 82.4751 107.827 84.3068 108.425C85.5975 109.12 86.6145 110.383 87.1457 111.953C87.6768 113.523 87.6812 115.277 87.1578 116.851C86.1019 121.064 80.1183 122.201 79.7664 117.988C79.7664 115.756 81.7022 115.334 82.8285 116.135C82.9253 115.33 82.8032 114.509 82.4804 113.793C82.1576 113.078 81.6511 112.505 81.0357 112.161C80.4203 111.816 79.7286 111.717 79.0627 111.879C78.3969 112.041 77.7921 112.455 77.3378 113.059C76.926 113.556 76.6041 114.149 76.3921 114.802C76.1802 115.454 76.0827 116.151 76.1059 116.851C76.1424 118.155 76.4944 119.418 77.1192 120.488C77.744 121.557 78.6147 122.386 79.6256 122.875C81.0165 123.628 82.5563 123.896 84.0689 123.65C85.5814 123.405 87.0056 122.654 88.1785 121.485C89.4664 120.079 90.3504 118.223 90.7044 116.18C91.0583 114.137 90.8641 112.013 90.1495 110.11C89.238 107.899 87.7341 106.117 85.8778 105.048C84.0214 103.979 81.9195 103.685 79.9072 104.213C77.5646 104.528 75.3257 105.542 73.3957 107.162C72.8837 107.55 72.3902 107.972 71.9174 108.425C71.6006 108.805 71.2839 109.226 70.9319 109.605C70.2201 110.522 69.6054 111.541 69.1017 112.638C68.5212 113.531 68.0364 114.508 67.6586 115.545C67.3418 116.64 67.025 117.693 66.7786 118.831C66.7786 119.294 66.7786 119.8 66.5675 120.263L66.2507 121.864V107.667H65.7227C65.7263 106.235 65.2973 104.849 64.5147 103.765C63.7321 102.681 62.6486 101.973 61.4639 101.769V100H59.0001V206.876C59.0682 206.607 59.1889 206.362 59.3521 206.16C59.1435 206.366 58.9955 206.647 58.9297 206.961V210.457H61.3583V208.94C62.5281 208.749 63.6016 208.061 64.3832 207.001C65.1649 205.942 65.6027 204.582 65.6171 203.169H66.1451V198.956C66.712 200.665 67.6925 202.132 68.9609 203.169C69.8444 203.898 70.8555 204.376 71.917 204.566C72.9784 204.756 74.0621 204.653 75.0852 204.264C76.0211 203.853 76.7938 203.036 77.2501 201.975C77.7064 200.913 77.8131 199.686 77.549 198.535C77.3187 197.766 76.9066 197.094 76.363 196.6C75.8193 196.107 75.1675 195.813 74.4868 195.755C73.3515 195.671 72.2285 196.075 71.3191 196.892C71.0106 197.046 70.7252 197.26 70.4743 197.524C69.6637 196.093 69.2231 194.408 69.2072 192.679C69.4313 192.679 69.6461 192.573 69.8046 192.383C69.963 192.194 70.052 191.937 70.052 191.668V190.657C70.048 190.418 69.9761 190.188 69.8482 190.004C69.7203 189.82 69.5439 189.694 69.348 189.646C69.6537 186.848 70.5102 184.177 71.847 181.853C73.2949 179.749 75.0888 178.024 77.1171 176.785C79.1455 175.545 81.3651 174.818 83.6381 174.649C85.5204 174.47 87.4134 174.757 89.1992 175.492C89.0426 175.84 88.9695 176.234 88.988 176.629C88.988 177.177 89.4456 177.514 89.9031 177.809C90.3607 178.104 90.9239 178.693 91.7686 177.05C92.3316 177.519 92.8722 178.025 93.3877 178.567C95.3728 181.116 96.4684 184.477 96.4498 187.961C96.5971 190.354 96.0226 192.73 94.8307 194.659C94.633 193.32 94.126 192.074 93.3671 191.061C92.6083 190.049 91.6278 189.31 90.5367 188.93C89.2746 188.402 87.9229 188.257 86.6025 188.507C85.282 188.757 84.0338 189.394 82.9693 190.362C82.0086 191.304 81.2283 192.482 80.6815 193.817C79.9828 195.75 79.804 197.896 80.1697 199.957C80.5355 202.018 81.4278 203.891 82.7229 205.318C85.0382 207.574 87.9793 208.702 90.9591 208.477C92.9565 208.472 94.9254 207.91 96.7095 206.835C98.4936 205.76 100.044 204.202 101.237 202.284C103.151 198.832 104.172 194.78 104.172 190.636C104.172 186.492 103.151 182.441 101.237 178.988C99.7604 176.657 97.9487 174.66 95.8867 173.09C101.127 175.45 106.631 176.869 112.218 177.303V179.199C110.815 179.475 109.514 180.253 108.487 181.432C107.817 182.174 107.28 183.072 106.911 184.072C106.542 185.072 106.347 186.152 106.34 187.245C106.404 189.249 107.062 191.161 108.198 192.635C109.333 194.11 110.871 195.052 112.535 195.291V196.302H111.725C111.679 196.694 111.679 197.091 111.725 197.482H111.197C111.197 198.451 108.734 200.262 107.431 200.641C107.15 200.641 106.727 200.641 106.551 201.105H106.164C106.164 201.105 105.847 201.358 105.847 201.695C105.847 202.032 105.847 202.284 106.164 202.284H107.678C107.678 202.916 107.678 203.422 107.924 203.422H108.522C108.522 203.422 108.804 203.927 108.804 204.517C108.804 205.107 108.804 205.57 108.522 205.57V205.781H108.276C108.276 205.781 108.03 206.244 108.03 206.876H106.868V208.688H105.742V209.53H104.299V210.204C102.407 210.541 100.636 211.521 99.1952 213.027C98.4208 214.543 98.0337 216.06 95.6755 216.06C95.6755 218.756 90.9591 223.601 88.3897 224.485C87.8265 224.738 86.8762 224.485 86.6298 226.17H84.9052C84.743 226.136 84.5765 226.144 84.4173 226.195C84.2582 226.245 84.1102 226.337 83.9839 226.464C83.8576 226.59 83.756 226.748 83.6863 226.927C83.6166 227.106 83.5805 227.3 83.5805 227.497C83.5805 227.695 83.6166 227.889 83.6863 228.068C83.756 228.247 83.8576 228.405 83.9839 228.531C84.1102 228.658 84.2582 228.75 84.4173 228.8C84.5765 228.851 84.743 228.859 84.9052 228.824H87.5449C87.7209 231.268 90.5015 230.425 91.311 232.026C91.1574 232.122 91.0296 232.267 90.9423 232.446C90.8551 232.625 90.8121 232.83 90.8183 233.037C90.8136 233.187 90.8335 233.336 90.877 233.476C90.9204 233.616 90.9865 233.744 91.0715 233.854C91.1565 233.964 91.2587 234.052 91.3723 234.114C91.4859 234.176 91.6086 234.211 91.7334 234.217H92.3669V235.523H93.5636L100.251 276.807H99.4768C99.269 276.969 99.0904 277.18 98.9514 277.426C98.8124 277.672 98.7158 277.948 98.6672 278.239C98.4208 278.239 98.3856 278.619 98.0337 278.619C97.6817 278.619 97.3297 278.619 97.2241 279.882C97.2241 280.219 97.5409 280.472 97.8225 280.641C97.8437 280.893 97.8437 281.147 97.8225 281.399C99.2216 281.419 100.606 281.748 101.905 282.368C101.905 282.873 101.905 283.084 101.553 283.126C101.201 283.168 101.553 284.39 101.835 284.811C102.117 285.233 104.158 284.811 104.404 284.811C104.651 284.811 104.616 285.359 104.404 285.359C104.193 285.359 104.123 285.822 104.158 285.991C104.193 286.159 104.475 285.991 104.651 285.991C104.756 286.269 104.81 286.57 104.81 286.876C104.81 287.181 104.756 287.482 104.651 287.76C104.629 287.805 104.618 287.856 104.618 287.908C104.618 287.959 104.629 288.01 104.651 288.055C104.514 288.419 104.481 288.827 104.557 289.215C104.633 289.604 104.815 289.951 105.073 290.204C106.375 291.088 106.411 291.973 106.446 292.057C107.748 291.72 109.543 293.363 109.438 293.995C109.332 294.627 110.775 294.964 111.444 295.132C111.516 295.848 111.804 296.508 112.255 296.987C112.706 297.465 113.287 297.729 113.89 297.729C114.493 297.729 115.074 297.465 115.525 296.987C115.976 296.508 116.264 295.848 116.336 295.132C117.005 295.132 118.448 294.711 118.342 293.995C118.237 293.279 120.032 291.72 121.334 292.057C121.334 292.057 121.334 291.088 122.707 290.204C122.943 289.978 123.114 289.67 123.196 289.323C123.278 288.975 123.267 288.605 123.164 288.266C123.164 288.266 123.376 288.266 123.376 287.971C123.376 287.904 123.353 287.839 123.314 287.792C123.274 287.745 123.22 287.718 123.164 287.718C122.981 287.178 122.981 286.573 123.164 286.033H123.411C123.501 286.023 123.586 285.976 123.651 285.899C123.715 285.822 123.755 285.72 123.763 285.612C123.763 285.496 123.727 285.384 123.662 285.298C123.597 285.212 123.507 285.159 123.411 285.148C123.411 285.148 123.411 284.769 123.411 284.643C123.411 284.516 125.663 284.643 125.98 284.643C126.297 284.643 126.262 283.421 126.262 282.958C126.262 282.494 125.91 282.705 125.91 282.199C127.21 281.579 128.594 281.251 129.993 281.23C129.971 280.978 129.971 280.724 129.993 280.472C130.274 280.472 130.626 280.051 130.591 279.714C130.591 278.619 129.957 278.492 129.746 278.45C129.535 278.408 129.394 278.197 129.113 278.071C129.078 277.758 128.984 277.458 128.838 277.195C128.691 276.932 128.496 276.713 128.268 276.554H127.634L134.287 235.354H135.307V234.048H136.434C136.559 234.043 136.681 234.008 136.795 233.946C136.908 233.883 137.011 233.795 137.096 233.685C137.181 233.576 137.247 233.447 137.29 233.307C137.334 233.167 137.354 233.018 137.349 232.869C137.347 232.663 137.301 232.462 137.215 232.285C137.128 232.107 137.005 231.96 136.856 231.858C137.666 230.257 140.376 231.099 140.622 228.656H143.262C143.424 228.691 143.591 228.682 143.75 228.632C143.909 228.581 144.057 228.489 144.183 228.363C144.309 228.236 144.411 228.078 144.481 227.899C144.55 227.721 144.587 227.526 144.587 227.329C144.587 227.132 144.55 226.937 144.481 226.758C144.411 226.58 144.309 226.422 144.183 226.295C144.057 226.169 143.909 226.077 143.75 226.026C143.591 225.975 143.424 225.967 143.262 226.002L143.156 226.381ZM104.756 275.333H102.257L97.0482 236.534H99.6879M128.55 236.534H131.189L125.875 275.333H123.411M120.208 275.333H107.854L104.052 236.534H124.08L120.208 275.333Z" fill="#8C433C"/>
<defs>
<radialGradient id="paint0_radial_227_37" cx="0" cy="0" r="1" gradientUnits="userSpaceOnUse" gradientTransform="translate(583.968 200.393) scale(708.063 125.11)">
<stop stop-color="#FFF5AD"/>
<stop offset="0.17" stop-color="#F1E09C"/>
<stop offset="0.53" stop-color="#D8BB7E"/>
<stop offset="0.82" stop-color="#C9A46B"/>
<stop offset="1" stop-color="#C39C64"/>
</radialGradient>
<linearGradient id="paint1_linear_227_37" x1="586.366" y1="-18.6854" x2="586.366" y2="446.256" gradientUnits="userSpaceOnUse">
<stop stop-color="#C39C64"/>
<stop offset="1" stop-color="#C39C64"/>
</linearGradient>
<linearGradient id="paint2_linear_227_37" x1="583.968" y1="-18.6854" x2="583.968" y2="446.256" gradientUnits="userSpaceOnUse">
<stop stop-color="#C39C64"/>
<stop offset="1" stop-color="#C39C64"/>
</linearGradient>
</defs>
</svg>
