<svg width="1200" height="400" viewBox="0 0 1200 400" fill="none" xmlns="http://www.w3.org/2000/svg">
<path d="M600.646 124.959V276.042C600.638 276.612 600.408 277.156 600.005 277.559C599.602 277.963 599.058 278.192 598.487 278.2H582.777C579.171 278.203 575.622 277.301 572.454 275.576C569.287 273.852 566.604 271.36 564.649 268.329L493.346 158.11L495.792 213.162V276.042C495.784 276.612 495.555 277.156 495.152 277.559C494.748 277.963 494.204 278.192 493.634 278.2H472.859C472.289 278.192 471.744 277.963 471.341 277.559C470.938 277.156 470.708 276.612 470.701 276.042V124.959C470.708 124.388 470.938 123.844 471.341 123.441C471.744 123.037 472.289 122.808 472.859 122.8H488.483C492.085 122.802 495.63 123.703 498.795 125.422C501.961 127.141 504.647 129.622 506.611 132.642L577.914 242.688L575.698 187.838V124.959C575.698 124.386 575.926 123.837 576.33 123.432C576.735 123.028 577.284 122.8 577.856 122.8H598.631C599.176 122.843 599.685 123.089 600.058 123.488C600.43 123.888 600.64 124.412 600.646 124.959Z" fill="#848484"/>
<path d="M812.971 278.2H790.988C790.644 278.197 790.307 278.112 790.003 277.952C789.699 277.792 789.437 277.561 789.24 277.28C789.043 276.998 788.916 276.674 788.87 276.333C788.824 275.993 788.859 275.646 788.974 275.323L847.213 124.873C847.462 124.243 847.9 123.705 848.467 123.334C849.033 122.963 849.701 122.777 850.378 122.801H877.915C878.568 122.806 879.204 123.006 879.742 123.376C880.28 123.745 880.696 124.266 880.936 124.873L939.003 275.323C939.118 275.646 939.153 275.993 939.107 276.333C939.06 276.674 938.933 276.998 938.736 277.28C938.539 277.561 938.278 277.792 937.974 277.952C937.67 278.112 937.332 278.197 936.989 278.2H915.005C914.565 278.202 914.135 278.072 913.771 277.825C913.406 277.579 913.124 277.228 912.962 276.819L866.031 153.075C865.88 152.658 865.604 152.298 865.241 152.044C864.878 151.789 864.446 151.653 864.003 151.653C863.559 151.653 863.127 151.789 862.764 152.044C862.401 152.298 862.125 152.658 861.974 153.075L815.043 276.819C814.879 277.233 814.593 277.587 814.223 277.833C813.853 278.08 813.416 278.208 812.971 278.2Z" fill="#848484"/>
<path d="M1091.62 274.718L1047.94 218.918C1072.6 214.256 1087.02 197.622 1087.02 172.096C1087.02 142.772 1067.94 122.8 1034.19 122.8H973.273C972.419 122.8 971.599 123.14 970.995 123.744C970.39 124.349 970.051 125.168 970.051 126.023C970.051 128.744 970.587 131.439 971.628 133.952C972.669 136.466 974.195 138.751 976.119 140.675C978.042 142.599 980.326 144.125 982.84 145.166C985.353 146.207 988.048 146.743 990.768 146.743H1031.66C1052.06 146.743 1061.84 157.19 1061.84 172.269C1061.84 187.349 1052.29 198.169 1031.66 198.169H973.273C972.416 198.177 971.596 198.523 970.993 199.132C970.389 199.741 970.051 200.563 970.051 201.421V276.243C970.051 276.815 970.278 277.364 970.683 277.769C971.087 278.174 971.636 278.401 972.209 278.401H992.984C993.554 278.394 994.098 278.164 994.502 277.761C994.905 277.358 995.134 276.813 995.142 276.243V220.27H1019.11L1057.01 269.739C1059.04 272.386 1061.65 274.528 1064.65 275.996C1067.64 277.463 1070.94 278.218 1074.27 278.2H1090.04C1090.43 278.178 1090.81 278.049 1091.14 277.827C1091.46 277.604 1091.72 277.297 1091.89 276.938C1092.05 276.579 1092.11 276.183 1092.06 275.791C1092.02 275.4 1091.86 275.029 1091.62 274.718Z" fill="#848484"/>
<path d="M747.28 122.8H650.885C650.122 122.8 649.39 123.103 648.851 123.643C648.311 124.183 648.008 124.915 648.008 125.678C648.008 131.272 650.23 136.638 654.186 140.594C658.141 144.55 663.506 146.772 669.1 146.772H747.28C747.564 146.776 747.846 146.723 748.11 146.616C748.374 146.509 748.613 146.35 748.814 146.149C749.015 145.947 749.174 145.708 749.281 145.444C749.388 145.181 749.442 144.898 749.438 144.614V124.959C749.438 124.386 749.21 123.837 748.805 123.432C748.401 123.028 747.852 122.8 747.28 122.8ZM747.28 254.228H675.344C674.774 254.221 674.229 253.991 673.826 253.588C673.423 253.184 673.193 252.64 673.186 252.07V213.105C673.186 212.532 673.413 211.983 673.818 211.579C674.222 211.174 674.771 210.946 675.344 210.946H741.841C742.414 210.946 742.962 210.719 743.367 210.314C743.772 209.909 743.999 209.36 743.999 208.788V188.989C743.999 188.417 743.772 187.868 743.367 187.463C742.962 187.058 742.414 186.831 741.841 186.831H651.231C650.373 186.838 649.554 187.184 648.95 187.793C648.347 188.402 648.008 189.225 648.008 190.083V274.862C648.008 275.716 648.348 276.536 648.952 277.141C649.556 277.745 650.376 278.085 651.231 278.085H747.28C747.852 278.085 748.401 277.857 748.805 277.453C749.21 277.048 749.438 276.499 749.438 275.926V256.271C749.415 255.717 749.177 255.193 748.774 254.811C748.371 254.429 747.835 254.22 747.28 254.228Z" fill="#848484"/>
<path d="M315.866 84.152L261.713 164.528C260.835 165.688 260.429 167.138 260.577 168.585C260.725 170.032 261.415 171.369 262.508 172.328C263.602 173.287 265.018 173.797 266.472 173.754C267.926 173.711 269.31 173.119 270.345 172.097L323.635 126.052C323.942 125.771 324.325 125.585 324.737 125.519C325.149 125.453 325.571 125.509 325.951 125.681C326.33 125.853 326.652 126.132 326.874 126.484C327.097 126.837 327.211 127.247 327.203 127.664V272.387C327.199 272.826 327.06 273.254 326.806 273.613C326.553 273.971 326.195 274.244 325.783 274.394C325.37 274.544 324.921 274.565 324.496 274.453C324.071 274.341 323.69 274.102 323.405 273.768L162.268 80.9576C159.696 77.8622 156.478 75.367 152.839 73.647C149.201 71.927 145.23 71.0237 141.206 71.0005H135.595C128.276 71.0005 121.257 73.9082 116.082 79.0838C110.907 84.2594 108 91.279 108 98.5984V302.402C108 309.722 110.907 316.741 116.082 321.917C121.257 327.092 128.276 330 135.595 330C140.31 329.999 144.947 328.79 149.062 326.488C153.178 324.186 156.635 320.867 159.103 316.849L213.257 236.472C214.134 235.312 214.54 233.863 214.392 232.416C214.244 230.969 213.554 229.631 212.461 228.672C211.367 227.713 209.951 227.204 208.497 227.247C207.043 227.29 205.659 227.882 204.624 228.904L151.334 274.948C151.027 275.23 150.644 275.415 150.232 275.481C149.821 275.547 149.399 275.491 149.019 275.319C148.639 275.148 148.318 274.869 148.095 274.516C147.872 274.164 147.758 273.754 147.766 273.337V128.757C147.77 128.318 147.909 127.89 148.163 127.532C148.416 127.173 148.774 126.9 149.187 126.75C149.6 126.6 150.048 126.58 150.473 126.691C150.898 126.803 151.279 127.042 151.564 127.376L312.701 320.187C315.293 323.254 318.523 325.719 322.166 327.409C325.809 329.099 329.777 329.973 333.792 329.971H339.547C343.171 329.971 346.759 329.257 350.107 327.87C353.455 326.484 356.497 324.451 359.06 321.888C361.622 319.325 363.655 316.283 365.041 312.935C366.428 309.586 367.142 305.998 367.142 302.373V98.5984C367.142 94.9596 366.422 91.3567 365.025 87.9971C363.627 84.6375 361.579 81.5874 358.999 79.0225C356.418 76.4575 353.355 74.4283 349.988 73.0515C346.62 71.6748 343.013 70.9778 339.375 71.0005C334.659 71.0011 330.022 72.2102 325.907 74.5126C321.791 76.8149 318.334 80.1336 315.866 84.152Z" fill="#848484"/>
</svg>
