<svg width="1200" height="400" viewBox="0 0 1200 400" fill="none" xmlns="http://www.w3.org/2000/svg">
<path d="M104.24 243.755C104.254 229.602 104.26 215.449 104.297 201.296C104.299 200.336 104.531 199.377 104.829 198.039C105.091 196.84 105.259 196.021 105.259 195.201C105.264 181.044 105.248 166.886 105.237 152.728C105.251 141.454 105.301 130.179 105.234 118.905C105.225 117.355 105.692 116.639 107.09 116.011C120.113 110.162 133.093 104.219 146.098 98.3298C156.184 93.7627 166.278 89.2161 176.383 84.6918C190.675 78.2925 204.995 71.9532 219.276 65.5286C228.775 61.2549 238.236 56.8952 247.695 52.5322C249.779 51.5712 251.512 51.2561 253.822 52.5453C266.009 59.346 278.348 65.875 290.619 72.5253C301.947 78.6642 313.254 84.8416 324.574 90.9941C335.824 97.1087 347.09 103.196 358.331 109.328C368.418 114.83 378.464 120.407 388.574 125.864C389.797 126.525 390.134 127.246 390.133 128.541C390.105 179.361 390.101 230.18 390.144 281C390.146 282.481 389.613 283.154 388.341 283.739C378.575 288.237 368.839 292.799 359.092 297.339C344.359 304.201 329.627 311.063 314.893 317.923C305.143 322.462 295.393 327.001 285.64 331.532C271.866 337.932 258.104 344.359 244.28 350.648C243.293 351.097 241.668 350.87 240.626 350.367C228.627 344.569 216.683 338.656 204.723 332.775C185.318 323.231 165.917 313.679 146.504 304.149C136.84 299.404 127.154 294.705 117.481 289.978C113.199 287.886 108.927 285.776 104.49 283.353C104.301 269.939 104.27 256.847 104.24 243.755ZM334.312 171.341C334.312 171.341 334.48 171.429 334.752 171.262C334.969 170.913 335.187 170.564 335.369 170.223C335.369 170.223 335.376 170.258 335.66 170.075C336.246 169.295 336.832 168.515 337.475 167.66C336.208 166.248 334.964 165.03 333.925 163.656C332.89 162.287 331.94 162.142 330.361 162.901C321.629 167.101 312.83 171.161 304.064 175.292C297.201 178.525 290.354 181.79 283.158 185.145C274.31 189.286 265.466 193.436 256.611 197.561C255.196 198.219 254.139 198.899 254.123 200.791C254.058 208.301 253.841 215.809 253.662 223.318C253.51 229.668 253.321 236.016 253.17 242.366C252.99 249.957 252.816 257.548 252.688 265.14C252.674 265.995 252.98 266.855 253.004 268.074C251.542 271.353 252.307 274.7 252.572 278.106C253.449 277.514 254.032 276.849 254.568 276.148C275.769 248.455 296.976 220.764 318.157 193.056C323.435 186.151 328.632 179.184 334.139 172.059C334.225 171.764 334.312 171.468 334.312 171.341ZM209.597 181.935C205.691 179.779 201.79 177.614 197.878 175.469C188.529 170.345 179.173 165.235 169.825 160.109C168.643 159.461 167.611 158.766 166.361 160.188C163.471 163.476 160.415 166.618 157.527 169.907C157.176 170.307 157.442 171.247 157.546 172.239C183.524 206.006 209.503 239.773 235.493 273.531C235.663 273.752 235.999 273.847 236.683 274.254C236.866 269.992 237.033 266.083 237.269 261.719C237.425 257.86 237.606 254.001 237.73 250.141C237.919 244.241 238.108 238.341 238.225 232.439C238.425 222.378 238.561 212.315 238.743 202.253C238.767 200.878 238.896 199.505 238.99 197.897C232.035 194.153 224.98 190.357 217.689 186.309C215.073 184.931 212.457 183.554 209.597 181.935ZM199.541 125.083C198.779 125.694 197.93 126.224 197.268 126.929C193.015 131.461 188.798 136.027 184.579 140.591C182.017 143.362 179.471 146.148 176.731 149.132C178.927 150.352 180.788 151.406 182.667 152.426C193.223 158.161 203.783 163.888 214.605 169.84C223.302 174.62 232.197 179.082 240.619 184.305C245.407 187.274 249.231 187.318 254.139 184.663C262.56 180.106 271.384 176.291 280.403 172.137C294.6 165.479 308.798 158.821 323.26 152.039C315.082 143.121 307.199 134.512 299.287 125.93C298.987 125.604 298.421 125.524 297.735 125.087C289.893 122.154 282.065 119.183 274.196 116.326C272.753 115.802 271.142 115.514 269.607 115.507C255.919 115.445 242.229 115.467 228.54 115.477C227.632 115.477 226.651 115.377 225.828 115.67C217.163 118.758 208.523 121.916 199.541 125.083Z" fill="#0032BE"/>
<path d="M1122.52 222.295C1120.31 230.749 1116.48 238.013 1110.25 244.018C1103.37 250.653 1095.14 254.629 1085.8 255.56C1077.44 256.395 1068.96 256.113 1060.53 256.229C1054.32 256.314 1048.1 256.245 1041.66 256.245C1041.66 221.798 1041.66 187.473 1041.66 152.781C1042.51 152.781 1043.39 152.781 1044.27 152.781C1055.88 152.781 1067.5 152.528 1079.1 152.857C1089.29 153.146 1099 155.832 1107.15 162.129C1114.81 168.056 1119.95 176.046 1122.01 185.568C1123.34 191.701 1124.3 198.026 1124.39 204.28C1124.48 210.206 1123.22 216.151 1122.52 222.295ZM1084.07 233.98C1091.65 231.749 1096.91 227.019 1099.9 219.671C1103.54 210.692 1103.49 201.56 1100.86 192.448C1098.36 183.841 1093.34 177.334 1084.13 175.1C1081.52 174.467 1078.83 173.996 1076.15 173.879C1071.64 173.681 1067.11 173.825 1062.57 173.825C1062.57 194.408 1062.57 214.811 1062.57 235.888C1069.79 235.306 1076.75 234.746 1084.07 233.98Z" fill="#0032BE"/>
<path d="M569.357 256.163C562.883 256.184 556.409 256.205 549.701 255.967C549.471 221.426 549.473 187.144 549.475 152.863C555.531 152.836 561.587 152.77 567.642 152.836C568.348 152.844 569.349 153.405 569.705 154.009C576.19 165.025 582.599 176.087 589.021 187.14C594.947 197.338 600.868 207.539 606.812 217.727C606.945 217.955 607.335 218.035 607.773 217.869C608.033 216.24 608.202 214.926 608.204 213.611C608.226 193.361 608.227 173.111 608.233 152.861C614.764 152.861 621.296 152.861 627.98 152.861C627.98 187.308 627.98 221.58 627.98 256.245C625.112 256.245 622.245 256.245 619.378 256.245C616.64 256.245 613.899 256.177 611.165 256.271C609.647 256.324 608.811 255.757 608.045 254.429C602.278 244.422 596.429 234.461 590.583 224.499C584.656 214.399 578.703 204.313 572.759 194.223C572.012 192.955 571.249 191.697 570.466 190.452C570.459 190.441 570.067 190.672 569.753 191.131C569.559 192.787 569.389 194.101 569.388 195.415C569.364 215.664 569.363 235.914 569.357 256.163Z" fill="#0032BE"/>
<path d="M532.567 223.467C532.153 232.114 529.04 239.69 523.657 246.439C517.936 253.612 510.481 257.49 501.469 258.731C488.507 260.515 476.852 257.942 467.603 248.206C461.621 241.908 457.726 234.16 457.519 225.517C456.949 201.691 457.027 177.85 456.856 154.015C456.854 153.701 456.949 153.386 457.021 152.934C463.853 152.934 470.614 152.934 477.751 152.934C477.751 153.922 477.751 154.88 477.751 155.837C477.751 175.643 477.63 195.451 477.854 215.254C477.899 219.179 478.906 223.206 480.117 226.978C481.994 232.826 486.588 235.775 492.542 236.276C498.099 236.743 503.642 236.136 507.336 231.31C510.22 227.543 511.431 222.984 511.614 218.21C511.652 217.22 511.709 216.231 512.006 214.915C512.373 213.278 512.592 211.969 512.594 210.66C512.621 191.393 512.62 172.127 512.626 152.86C519.099 152.841 525.573 152.821 532.279 153.06C532.531 176.701 532.549 200.084 532.567 223.467Z" fill="#0032BE"/>
<path d="M736.665 232.76C735.677 235.759 734.635 238.741 733.713 241.761C732.262 246.518 730.892 251.301 729.464 256.151C722.238 256.151 715.038 256.151 707.504 256.151C708.71 252.448 709.857 248.9 711.018 245.358C716.829 227.632 722.658 209.912 728.454 192.181C732.546 179.661 736.573 167.119 740.726 154.619C740.978 153.861 742.082 152.876 742.805 152.863C749.932 152.732 757.062 152.784 764.322 152.784C775.336 187.182 786.323 221.498 797.449 256.246C796.371 256.246 795.433 256.246 794.494 256.246C788.521 256.246 782.547 256.214 776.575 256.268C775.038 256.282 774.38 255.933 773.935 254.208C772.26 247.724 770.268 241.322 768.359 234.9C768.156 234.218 767.716 233.607 767.031 232.802C766.022 232.554 765.367 232.393 764.712 232.392C756.177 232.374 747.641 232.369 739.106 232.395C738.292 232.397 737.479 232.632 736.665 232.76ZM758.786 214.459C760.001 214.459 761.217 214.459 762.724 214.459C759.171 201.845 755.716 189.58 752.261 177.315C752.098 177.337 751.935 177.359 751.772 177.382C748.25 189.662 744.728 201.943 741.139 214.459C747.046 214.459 752.675 214.459 758.786 214.459Z" fill="#0032BD"/>
<path d="M984.098 193.072C984.947 193.238 985.797 193.545 986.647 193.548C995.585 193.583 1004.52 193.57 1013.46 193.57C1014.36 193.57 1015.26 193.57 1016.35 193.57C1016.35 200.217 1016.35 206.686 1016.35 213.626C1005.65 213.626 995.008 213.626 984.157 213.988C983.857 218.227 983.686 222.104 983.701 225.98C983.712 228.939 983.958 231.897 984.1 234.855C985.035 235.021 985.969 235.329 986.904 235.331C999.764 235.364 1012.62 235.354 1025.48 235.355C1026.38 235.355 1027.27 235.355 1028.33 235.355C1028.33 242.336 1028.33 249.09 1028.33 256.225C1006.97 256.225 985.601 256.225 964.004 255.967C963.773 221.426 963.776 187.144 963.778 152.862C983.941 152.84 1004.1 152.817 1024.27 152.802C1024.58 152.802 1024.9 152.895 1025.35 152.967C1025.35 159.792 1025.35 166.547 1025.35 173.673C1024.36 173.673 1023.4 173.673 1022.44 173.673C1010.65 173.673 998.87 173.669 987.087 173.68C986.18 173.681 985.273 173.779 984.157 174.194C983.998 180.728 984.048 186.9 984.098 193.072Z" fill="#0032BE"/>
<path d="M905.971 219.827C905.82 219.938 905.669 220.049 905.386 220.482C905.17 222.034 905.015 223.263 905.012 224.494C904.985 235.05 904.986 245.606 904.978 256.163C898.449 256.163 891.92 256.163 885.239 256.163C885.239 221.724 885.239 187.462 885.239 152.902C886.087 152.862 886.96 152.787 887.834 152.787C898.782 152.779 909.733 152.614 920.676 152.829C931.445 153.041 940.143 157.541 945.607 166.969C948.263 171.551 949.945 176.702 949.813 182.195C949.671 188.094 950.433 194.044 948.296 199.808C944.467 210.137 937.288 216.674 926.623 219.404C926.231 219.504 925.797 219.437 924.941 219.457C922.767 219.458 921.032 219.409 919.3 219.45C914.857 219.554 910.414 219.698 905.971 219.827ZM905.693 200.377C909.329 200.429 912.964 200.521 916.6 200.514C917.98 200.511 919.409 200.468 920.733 200.125C929.851 197.767 932.024 183.651 925.988 176.442C923.847 173.886 920.946 172.968 917.577 171.943C913.708 171.987 909.84 172.03 905.72 172.202C905.61 172.352 905.501 172.502 905.255 173.042C905.184 181.477 905.107 189.912 905.061 198.347C905.058 198.909 905.295 199.472 905.693 200.377Z" fill="#0032BE"/>
<path d="M807.415 152.859C819.515 152.834 831.627 152.455 843.709 152.891C854.136 153.267 862.602 158.032 867.547 167.436C869.627 171.391 870.48 176.042 871.553 180.458C873.025 186.512 872.163 192.584 870.493 198.44C867.26 209.778 858.268 217.817 846.761 219.455C843.929 219.455 841.537 219.392 839.147 219.45C835.37 219.543 831.596 219.716 827.82 219.856C827.653 220.704 827.343 221.552 827.34 222.402C827.307 232.658 827.319 242.914 827.319 253.171C827.319 254.069 827.319 254.967 827.319 256.225C820.722 256.225 814.301 256.225 807.646 255.967C807.414 221.425 807.414 187.142 807.415 152.859ZM839.414 200.534C840.466 200.411 841.559 200.427 842.565 200.14C848.209 198.533 850.3 194.051 851.039 188.879C851.971 182.351 849.418 174.672 842.483 172.96C837.719 171.784 832.557 172.22 827.536 171.934C827.536 181.813 827.536 191.111 827.536 200.534C831.482 200.534 835.211 200.534 839.414 200.534Z" fill="#0032BE"/>
<path d="M718.748 173.595C709.231 173.595 699.713 173.595 689.963 173.595C689.963 201.224 689.963 228.53 689.963 256.04C682.911 256.04 676.092 256.04 669.038 256.04C669.038 228.682 669.038 201.376 669.038 173.654C659.394 173.654 649.978 173.654 640.329 173.396C640.097 166.379 640.099 159.619 640.101 152.859C653.089 152.833 666.077 152.794 679.065 152.785C692.137 152.775 705.209 152.795 718.515 153.059C718.748 160.077 718.748 166.836 718.748 173.595Z" fill="#0032BE"/>
<path d="M807.242 152.974C807.414 187.142 807.414 221.425 807.416 255.936C807.247 255.487 806.925 254.809 806.925 254.132C806.9 220.941 806.903 187.751 806.911 154.56C806.911 154.07 807.013 153.58 807.242 152.974Z" fill="#0E3497"/>
<path d="M549.302 152.977C549.473 187.144 549.47 221.426 549.471 255.936C549.302 255.405 548.982 254.645 548.981 253.885C548.956 220.944 548.958 188.002 548.966 155.06C548.967 154.404 549.072 153.748 549.302 152.977Z" fill="#0E329B"/>
<path d="M963.604 152.977C963.776 187.144 963.773 221.426 963.773 255.936C963.605 255.405 963.284 254.645 963.283 253.886C963.258 220.943 963.26 188.001 963.268 155.059C963.268 154.403 963.374 153.747 963.604 152.977Z" fill="#0E329B"/>
<path d="M532.722 223.319C532.549 200.084 532.531 176.701 532.51 153.091C532.679 153.539 533.001 154.215 533.002 154.892C533.028 177.16 533.024 199.428 533.016 221.695C533.016 222.188 532.926 222.68 532.722 223.319Z" fill="#0E329B"/>
<path d="M569.529 256.047C569.363 235.914 569.364 215.664 569.388 195.415C569.389 194.101 569.559 192.787 569.723 191.282C569.821 211.386 569.85 231.679 569.865 251.973C569.866 253.292 569.758 254.611 569.529 256.047Z" fill="#0D3398"/>
<path d="M608.06 152.976C608.227 173.111 608.226 193.361 608.204 213.611C608.202 214.926 608.033 216.24 607.869 217.744C607.771 196.977 607.744 176.019 607.728 155.061C607.727 154.405 607.831 153.748 608.06 152.976Z" fill="#0D3398"/>
<path d="M512.452 152.975C512.62 172.127 512.621 191.393 512.594 210.66C512.592 211.969 512.373 213.278 512.154 214.767C512.072 195.398 512.089 175.85 512.117 156.302C512.119 155.231 512.222 154.161 512.452 152.975Z" fill="#0D3398"/>
<path d="M105.082 152.875C105.248 166.886 105.264 181.044 105.259 195.201C105.259 196.021 105.091 196.84 104.929 197.851C104.88 183.036 104.903 168.029 105.082 152.875Z" fill="#0E329B"/>
<path d="M104.085 243.903C104.27 256.847 104.301 269.939 104.344 283.257C104.167 282.9 103.811 282.318 103.81 281.735C103.783 269.417 103.796 257.099 103.808 244.781C103.808 244.538 103.887 244.294 104.085 243.903Z" fill="#0E329B"/>
<path d="M905.152 256.048C904.986 245.606 904.985 235.05 905.012 224.494C905.015 223.263 905.17 222.034 905.323 220.61C905.369 232.255 905.348 244.095 905.152 256.048Z" fill="#0E329B"/>
<path d="M736.898 232.797C737.479 232.632 738.292 232.397 739.106 232.395C747.641 232.369 756.177 232.374 764.712 232.392C765.367 232.393 766.022 232.554 766.867 232.712C757.082 232.801 747.107 232.818 736.898 232.797Z" fill="#0E329B"/>
<path d="M639.927 152.974C640.099 159.619 640.097 166.379 640.098 173.367C639.942 173.333 639.643 173.071 639.644 172.81C639.661 166.236 639.71 159.663 639.927 152.974Z" fill="#0E3497"/>
<path d="M984.129 234.624C983.958 231.897 983.712 228.939 983.701 225.98C983.686 222.104 983.857 218.227 984.021 214.16C984.116 220.777 984.137 227.585 984.129 234.624Z" fill="#0D3398"/>
<path d="M718.922 173.48C718.748 166.836 718.748 160.077 718.745 153.089C718.903 153.122 719.204 153.382 719.203 153.642C719.187 160.217 719.139 166.791 718.922 173.48Z" fill="#0D3398"/>
<path d="M984.127 192.841C984.048 186.9 983.998 180.728 984.021 174.366C984.115 180.32 984.135 186.465 984.127 192.841Z" fill="#0D3398"/>
<path d="M828.051 219.885C831.596 219.716 835.37 219.543 839.147 219.45C841.537 219.392 843.929 219.455 846.556 219.471C846.012 219.629 845.232 219.907 844.451 219.912C839.061 219.945 833.672 219.92 828.051 219.885Z" fill="#0E329B"/>
<path d="M906.204 219.865C910.414 219.698 914.857 219.554 919.3 219.45C921.032 219.409 922.767 219.458 924.737 219.473C924.284 219.631 923.596 219.91 922.907 219.913C917.417 219.939 911.927 219.913 906.204 219.865Z" fill="#0E329B"/>
<path d="M280.039 172.165C271.384 176.291 262.56 180.106 254.139 184.663C249.231 187.318 245.407 187.274 240.619 184.305C232.197 179.082 223.302 174.621 214.554 169.573C214.841 168.374 215.198 167.45 215.513 166.512C218.934 156.324 222.349 146.134 226 135.93C240.859 135.906 255.483 135.896 270.128 136.078C273.444 148.235 276.742 160.2 280.039 172.165Z" fill="#50BDE8"/>
<path d="M333.867 172.246C328.632 179.184 323.435 186.151 318.157 193.056C296.976 220.764 275.769 248.455 254.568 276.148C254.032 276.849 253.449 277.514 252.572 278.106C252.307 274.7 251.542 271.353 253.184 267.759C253.918 266.244 254.546 265.073 255.012 263.841C262.439 244.163 269.865 224.486 277.246 204.791C279.568 198.596 281.757 192.35 284.198 186.095C284.946 185.908 285.515 185.787 286.059 185.594C298.293 181.255 310.516 176.885 322.759 172.574C326.791 171.154 330.874 169.881 335.116 168.481C335.218 169.174 335.297 169.716 335.376 170.258C335.376 170.258 335.369 170.223 335.264 170.313C334.932 170.744 334.706 171.086 334.48 171.429C334.48 171.429 334.312 171.341 334.291 171.392C334.135 171.711 334.001 171.978 333.867 172.246Z" fill="#81CCE7"/>
<path d="M237.2 262.174C237.033 266.083 236.866 269.992 236.683 274.254C235.999 273.847 235.663 273.752 235.493 273.531C209.503 239.773 183.525 206.006 157.642 172.013C159.353 172.012 161.022 172.05 162.572 172.498C168.619 174.249 174.616 176.172 180.655 177.951C190.03 180.713 199.425 183.41 208.831 186.256C208.85 186.378 208.887 186.622 208.945 186.791C214.802 202.528 220.58 218.102 226.404 233.66C229.967 243.178 233.599 252.67 237.2 262.174Z" fill="#5A9BD3"/>
<path d="M270.108 135.886C255.483 135.896 240.859 135.906 225.827 135.869C217.7 132.799 209.971 129.797 202.271 126.723C201.391 126.372 200.671 125.621 199.877 125.055C208.523 121.916 217.163 118.758 225.828 115.67C226.651 115.377 227.632 115.477 228.54 115.477C242.229 115.467 255.919 115.445 269.607 115.507C271.142 115.514 272.753 115.802 274.196 116.326C282.065 119.183 289.893 122.155 297.731 125.334C296.59 126.064 295.469 126.593 294.311 127.019C286.248 129.987 278.177 132.933 270.108 135.886Z" fill="#3D95D2"/>
<path d="M270.128 136.078C278.177 132.933 286.248 129.987 294.311 127.019C295.469 126.593 296.59 126.064 297.853 125.456C298.421 125.524 298.987 125.604 299.287 125.93C307.199 134.512 315.082 143.121 323.26 152.039C308.798 158.821 294.6 165.479 280.221 172.151C276.742 160.2 273.444 148.235 270.128 136.078Z" fill="#8BCEE9"/>
<path d="M199.709 125.069C200.671 125.621 201.391 126.372 202.271 126.723C209.971 129.797 217.7 132.799 225.593 135.883C222.349 146.134 218.934 156.324 215.513 166.512C215.198 167.45 214.841 168.374 214.423 169.461C203.783 163.888 193.223 158.161 182.667 152.426C180.788 151.406 178.927 150.352 176.731 149.132C179.471 146.148 182.017 143.362 184.579 140.591C188.798 136.027 193.015 131.461 197.268 126.929C197.93 126.224 198.779 125.694 199.709 125.069Z" fill="#58AAE0"/>
<path d="M284.007 186.128C281.757 192.35 279.568 198.596 277.246 204.791C269.865 224.486 262.439 244.163 255.012 263.841C254.546 265.073 253.918 266.244 253.251 267.578C252.98 266.855 252.674 265.995 252.688 265.14C252.816 257.548 252.99 249.957 253.17 242.366C253.321 236.016 253.51 229.668 253.662 223.318C253.841 215.809 254.058 208.301 254.123 200.791C254.139 198.899 255.196 198.219 256.611 197.561C265.466 193.436 274.31 189.286 283.379 185.235C283.736 185.592 283.872 185.86 284.007 186.128Z" fill="#60BFDC"/>
<path d="M237.235 261.946C233.599 252.67 229.967 243.178 226.404 233.66C220.58 218.102 214.802 202.528 209.166 186.787C212.194 186.596 215.06 186.578 217.926 186.56C224.98 190.357 232.035 194.153 238.99 197.897C238.896 199.505 238.767 200.878 238.743 202.253C238.561 212.315 238.425 222.378 238.225 232.439C238.108 238.341 237.919 244.241 237.73 250.141C237.606 254.001 237.425 257.86 237.235 261.946Z" fill="#60BFDC"/>
<path d="M208.812 186.134C199.425 183.41 190.03 180.713 180.655 177.951C174.616 176.172 168.619 174.249 162.572 172.498C161.022 172.05 159.353 172.013 157.58 171.862C157.442 171.247 157.176 170.307 157.527 169.907C160.415 166.618 163.471 163.476 166.361 160.188C167.611 158.766 168.643 159.461 169.825 160.109C179.173 165.235 188.529 170.345 197.878 175.469C201.79 177.614 205.691 179.779 209.707 182.245C209.482 183.747 209.147 184.941 208.812 186.134Z" fill="#59AAE0"/>
<path d="M284.198 186.095C283.872 185.86 283.736 185.592 283.55 185.183C290.354 181.79 297.201 178.525 304.064 175.292C312.83 171.161 321.629 167.101 330.361 162.901C331.94 162.142 332.89 162.287 333.925 163.656C334.964 165.03 336.208 166.248 337.475 167.66C336.832 168.515 336.246 169.295 335.518 170.167C335.297 169.716 335.218 169.174 335.116 168.481C330.874 169.881 326.791 171.154 322.759 172.574C310.516 176.885 298.293 181.255 286.059 185.594C285.515 185.787 284.946 185.908 284.198 186.095Z" fill="#89CCEC"/>
<path d="M208.831 186.256C209.147 184.941 209.482 183.747 209.829 182.365C212.457 183.554 215.073 184.931 217.808 186.434C215.06 186.578 212.194 186.595 209.107 186.618C208.887 186.622 208.85 186.378 208.831 186.256Z" fill="#51B7EB"/>
<path d="M334.616 171.345C334.706 171.086 334.932 170.744 335.281 170.309C335.187 170.564 334.969 170.913 334.616 171.345Z" fill="#89CCEC"/>
<path d="M334.003 172.152C334.001 171.978 334.135 171.711 334.334 171.308C334.312 171.468 334.225 171.764 334.003 172.152Z" fill="#89CCEC"/>
<path d="M905.323 172.847C905.42 181.625 905.449 190.599 905.449 199.804C905.295 199.472 905.058 198.909 905.061 198.347C905.107 189.912 905.184 181.477 905.323 172.847Z" fill="#0E329B"/>
<path d="M917.772 172.009C914.124 172.1 910.281 172.125 906.205 172.112C909.84 172.03 913.708 171.986 917.772 172.009Z" fill="#0E329B"/>
</svg>
