<svg width="1200" height="400" viewBox="0 0 1200 400" fill="none" xmlns="http://www.w3.org/2000/svg">
<path d="M294.633 164V154.386L328.553 107.886H294.667V94.1818H349.894V103.795L315.974 150.295H349.86V164H294.633Z" fill="#CBCBCB"/>
<path d="M372.29 94.1818V164H355.415V94.1818H372.29Z" fill="#CBCBCB"/>
<path d="M378.084 164V94.1818H407.198C412.425 94.1818 416.8 94.9204 420.323 96.3977C423.868 97.875 426.527 99.9432 428.3 102.602C430.095 105.261 430.993 108.341 430.993 111.841C430.993 114.5 430.436 116.875 429.323 118.966C428.209 121.034 426.675 122.75 424.72 124.114C422.766 125.477 420.505 126.432 417.936 126.977V127.659C420.755 127.795 423.357 128.557 425.743 129.943C428.152 131.33 430.084 133.261 431.539 135.739C432.993 138.193 433.72 141.102 433.72 144.466C433.72 148.216 432.766 151.568 430.857 154.523C428.948 157.455 426.186 159.773 422.573 161.477C418.959 163.159 414.573 164 409.414 164H378.084ZM394.959 150.398H405.391C409.05 150.398 411.743 149.705 413.47 148.318C415.22 146.932 416.095 145 416.095 142.523C416.095 140.727 415.675 139.182 414.834 137.886C413.993 136.568 412.8 135.557 411.255 134.852C409.709 134.125 407.857 133.761 405.698 133.761H394.959V150.398ZM394.959 122.886H404.3C406.141 122.886 407.777 122.58 409.209 121.966C410.641 121.352 411.755 120.466 412.55 119.307C413.368 118.148 413.777 116.75 413.777 115.114C413.777 112.773 412.948 110.932 411.289 109.591C409.63 108.25 407.391 107.58 404.573 107.58H394.959V122.886Z" fill="#CBCBCB"/>
<path d="M452.136 164H434L457.557 94.1818H480.023L503.58 164H485.443L469.045 111.773H468.5L452.136 164ZM449.716 136.523H487.625V149.341H449.716V136.523Z" fill="#CBCBCB"/>
<path d="M585.497 119.477H568.451C568.224 117.727 567.758 116.148 567.053 114.739C566.349 113.33 565.417 112.125 564.258 111.125C563.099 110.125 561.724 109.364 560.133 108.841C558.565 108.295 556.826 108.023 554.917 108.023C551.531 108.023 548.61 108.852 546.156 110.511C543.724 112.17 541.849 114.568 540.531 117.705C539.235 120.841 538.588 124.636 538.588 129.091C538.588 133.727 539.247 137.614 540.565 140.75C541.906 143.864 543.781 146.216 546.19 147.807C548.622 149.375 551.497 150.159 554.815 150.159C556.678 150.159 558.372 149.92 559.894 149.443C561.44 148.966 562.792 148.273 563.951 147.364C565.133 146.432 566.099 145.307 566.849 143.989C567.622 142.648 568.156 141.136 568.451 139.455L585.497 139.557C585.201 142.648 584.303 145.693 582.803 148.693C581.326 151.693 579.292 154.432 576.701 156.909C574.11 159.364 570.951 161.318 567.224 162.773C563.519 164.227 559.269 164.955 554.474 164.955C548.156 164.955 542.497 163.568 537.497 160.795C532.519 158 528.587 153.932 525.701 148.591C522.815 143.25 521.372 136.75 521.372 129.091C521.372 121.409 522.837 114.898 525.769 109.557C528.701 104.216 532.667 100.159 537.667 97.3864C542.667 94.6136 548.269 93.2273 554.474 93.2273C558.701 93.2273 562.61 93.8182 566.201 95C569.792 96.1591 572.951 97.8636 575.678 100.114C578.406 102.341 580.622 105.08 582.326 108.33C584.031 111.58 585.087 115.295 585.497 119.477Z" fill="#CBCBCB"/>
<path d="M603.674 164H585.537L609.094 94.1818H631.56L655.117 164H636.981L620.583 111.773H620.037L603.674 164ZM601.253 136.523H639.162V149.341H601.253V136.523Z" fill="#CBCBCB"/>
<path d="M657.834 164V94.1818H686.675C691.902 94.1818 696.414 95.2045 700.209 97.25C704.027 99.2727 706.97 102.102 709.039 105.739C711.107 109.352 712.141 113.557 712.141 118.352C712.141 123.17 711.084 127.386 708.97 131C706.88 134.591 703.891 137.375 700.005 139.352C696.118 141.33 691.505 142.318 686.164 142.318H668.368V129.023H683.027C685.573 129.023 687.698 128.58 689.402 127.693C691.13 126.807 692.436 125.568 693.323 123.977C694.209 122.364 694.652 120.489 694.652 118.352C694.652 116.193 694.209 114.33 693.323 112.761C692.436 111.17 691.13 109.943 689.402 109.08C687.675 108.216 685.55 107.784 683.027 107.784H674.709V164H657.834Z" fill="#CBCBCB"/>
<path d="M732.534 94.1818V164H715.659V94.1818H732.534Z" fill="#CBCBCB"/>
<path d="M736.044 107.886V94.1818H795.055V107.886H773.885V164H757.248V107.886H736.044Z" fill="#CBCBCB"/>
<path d="M804.88 164H786.744L810.301 94.1818H832.766L856.323 164H838.187L821.789 111.773H821.244L804.88 164ZM802.46 136.523H840.369V149.341H802.46V136.523Z" fill="#CBCBCB"/>
<path d="M859.04 164V94.1818H875.915V150.295H904.961V164H859.04Z" fill="#CBCBCB"/>
<path d="M266.306 210.182H287.204L304.931 253.409H305.749L323.476 210.182H344.374V280H327.942V237.114H327.363L310.59 279.557H300.09L283.317 236.875H282.738V280H266.306V210.182Z" fill="#CBCBCB"/>
<path d="M365.202 280H347.066L370.622 210.182H393.088L416.645 280H398.509L382.111 227.773H381.566L365.202 280ZM362.782 252.523H400.691V265.341H362.782V252.523Z" fill="#CBCBCB"/>
<path d="M478.783 210.182V280H464.464L436.68 239.705H436.237V280H419.362V210.182H433.885L461.362 250.409H461.942V210.182H478.783Z" fill="#CBCBCB"/>
<path d="M499.696 280H481.559L505.116 210.182H527.582L551.139 280H533.003L516.605 227.773H516.059L499.696 280ZM497.275 252.523H535.184V265.341H497.275V252.523Z" fill="#CBCBCB"/>
<path d="M596.393 232.989C596.007 231.557 595.438 230.295 594.688 229.205C593.938 228.091 593.018 227.148 591.927 226.375C590.836 225.602 589.586 225.023 588.177 224.636C586.768 224.227 585.222 224.023 583.541 224.023C580.154 224.023 577.222 224.841 574.745 226.477C572.291 228.114 570.393 230.5 569.052 233.636C567.711 236.75 567.041 240.534 567.041 244.989C567.041 249.466 567.688 253.284 568.984 256.443C570.279 259.602 572.154 262.011 574.609 263.67C577.063 265.33 580.041 266.159 583.541 266.159C586.632 266.159 589.245 265.659 591.382 264.659C593.541 263.636 595.177 262.193 596.291 260.33C597.404 258.466 597.961 256.273 597.961 253.75L601.097 254.125H584.12V241.818H614.222V251.057C614.222 257.307 612.893 262.659 610.234 267.114C607.597 271.568 603.961 274.989 599.325 277.375C594.711 279.761 589.404 280.955 583.404 280.955C576.745 280.955 570.893 279.511 565.847 276.625C560.802 273.739 556.87 269.625 554.052 264.284C551.234 258.92 549.825 252.557 549.825 245.193C549.825 239.466 550.677 234.386 552.382 229.955C554.086 225.5 556.461 221.727 559.507 218.636C562.575 215.545 566.12 213.205 570.143 211.614C574.188 210.023 578.541 209.227 583.2 209.227C587.245 209.227 591.007 209.807 594.484 210.966C597.984 212.125 601.075 213.761 603.757 215.875C606.461 217.989 608.654 220.5 610.336 223.409C612.018 226.318 613.063 229.511 613.472 232.989H596.393Z" fill="#CBCBCB"/>
<path d="M619.368 280V210.182H668.05V223.886H636.243V238.205H665.562V251.943H636.243V266.295H668.05V280H619.368Z" fill="#CBCBCB"/>
<path d="M673.818 210.182H694.716L712.443 253.409H713.262L730.989 210.182H751.887V280H735.455V237.114H734.875L718.103 279.557H707.603L690.83 236.875H690.25V280H673.818V210.182Z" fill="#CBCBCB"/>
<path d="M757.612 280V210.182H806.294V223.886H774.487V238.205H803.805V251.943H774.487V266.295H806.294V280H757.612Z" fill="#CBCBCB"/>
<path d="M871.483 210.182V280H857.164L829.38 239.705H828.937V280H812.062V210.182H826.585L854.062 250.409H854.642V210.182H871.483Z" fill="#CBCBCB"/>
<path d="M875.009 223.886V210.182H934.021V223.886H912.85V280H896.214V223.886H875.009Z" fill="#CBCBCB"/>
</svg>
