<svg width="375" height="812" viewBox="0 0 375 812" fill="none" xmlns="http://www.w3.org/2000/svg">
<g clip-path="url(#clip0)">
<rect width="375" height="812" fill="#2F0EFF"/>
<rect y="-1" width="375" height="813" fill="url(#paint0_linear)"/>
<text opacity="0.7" fill="white" xml:space="preserve" style="white-space: pre" font-family="Nunito Sans" font-size="16" font-weight="600" letter-spacing="0.221257px"><tspan x="312" y="58.264">Skip</tspan></text>
<text fill="white" xml:space="preserve" style="white-space: pre" font-family="Nunito Sans" font-size="28" font-weight="800" letter-spacing="0.993548px"><tspan x="49.5898" y="505.712">Welcome To &#x2028;</tspan><tspan x="134.793" y="547.712">Metaintro</tspan></text>
<circle cx="187.5" cy="249" r="153" fill="url(#paint1_linear)"/>
<circle opacity="0.209124" cx="187.5" cy="249" r="153" stroke="url(#paint2_linear)"/>
<text opacity="0.8" fill="white" xml:space="preserve" style="white-space: pre" font-family="Nunito Sans" font-size="15" letter-spacing="0.6225px"><tspan x="41.8796" y="589.435">Unleash your future with us&#x2028;</tspan><tspan x="97.9533" y="609.435"> Welcome to Metaintro!</tspan></text>
<path d="M152.036 156.289L156.688 153.252L156.688 153.253C158.649 151.755 161.319 151.587 163.451 152.828L218.437 184.511C223.179 187.243 226.1 192.299 226.099 197.772L226.056 352.852C226.066 354.669 225.242 356.39 223.822 357.522L223.823 357.527L223.797 357.544C223.506 357.775 223.196 357.979 222.868 358.153L218.744 360.757L216.426 357.719L162.555 326.657C157.426 323.7 154.266 318.23 154.266 312.31L154.26 165.173L152.036 156.289Z" fill="url(#paint3_linear)"/>
<path d="M159.338 155.395L214.325 187.078C219.066 189.81 221.988 194.866 221.986 200.339L221.944 355.419C221.943 357.569 220.796 359.556 218.934 360.631C217.072 361.706 214.778 361.707 212.916 360.633L158.442 329.224C153.314 326.267 150.153 320.797 150.153 314.877L150.147 160.707C150.147 158.518 151.314 156.494 153.21 155.399C155.105 154.303 157.441 154.302 159.338 155.395Z" fill="url(#paint4_linear)"/>
<path d="M218.507 201.613V353.105C218.507 354.307 217.865 355.416 216.824 356.016C215.784 356.615 214.502 356.614 213.463 356.011L160.96 325.553C156.736 323.103 154.137 318.59 154.137 313.708V163.723C154.137 162.575 154.746 161.514 155.738 160.935C156.729 160.357 157.953 160.348 158.952 160.913L212.374 191.102C216.164 193.244 218.507 197.26 218.507 201.613Z" fill="url(#paint5_linear)"/>
<path d="M157.736 306.685V313.013C157.736 314.232 158.389 315.357 159.448 315.961L213.015 346.505C213.407 346.729 213.888 346.727 214.278 346.5C214.668 346.273 214.908 345.856 214.908 345.405V339.24C214.908 338.024 214.257 336.902 213.203 336.297L159.632 305.587C159.24 305.362 158.758 305.363 158.367 305.589C157.976 305.816 157.736 306.233 157.736 306.685H157.736Z" fill="url(#paint6_linear)"/>
<path fill-rule="evenodd" clip-rule="evenodd" d="M141.988 199.348V250.654C141.988 252.081 142.749 253.399 143.985 254.113L197.634 285.081C198.046 285.318 198.553 285.318 198.965 285.081C199.377 284.843 199.631 284.403 199.631 283.928L199.64 232.624C199.64 231.197 198.879 229.878 197.643 229.164L143.985 198.195C143.573 197.958 143.065 197.958 142.653 198.196C142.242 198.433 141.988 198.873 141.988 199.348H141.988Z" fill="url(#paint7_linear)"/>
<path d="M206.218 236.041V287.347C206.218 288.774 206.979 290.092 208.215 290.805L261.864 321.773C262.276 322.011 262.783 322.011 263.195 321.773C263.607 321.535 263.861 321.096 263.861 320.62L263.87 269.316C263.87 267.889 263.109 266.57 261.873 265.857L208.215 234.888C207.803 234.65 207.295 234.65 206.883 234.888C206.472 235.126 206.218 235.565 206.218 236.041H206.218Z" fill="url(#paint8_linear)"/>
<path d="M203.689 186.12V189.578C203.689 190.993 202.934 192.302 201.709 193.01C200.484 193.719 198.974 193.721 197.747 193.015L171.626 177.991C169.085 176.53 167.518 173.821 167.518 170.89V165.65L203.689 186.12Z" fill="#4061C7"/>
<path d="M210.05 366.28C210.003 366.168 209.947 366.061 209.882 365.958L209.891 365.954C209.879 365.937 209.866 365.922 209.854 365.905C209.802 365.825 209.745 365.749 209.683 365.677C207.627 362.956 205.152 362.204 204.87 360.768C204.741 359.999 204.514 359.251 204.194 358.54L201.931 359.378C202.569 360.829 202.915 360.755 203.338 361.836C203.762 362.918 203.871 363.542 203.705 365.83C203.539 368.118 204.194 368.798 204.194 368.798L204.207 368.792C204.833 369.895 206.415 370.345 207.939 369.781C209.594 369.168 210.539 367.601 210.05 366.28Z" fill="url(#paint9_linear)"/>
<ellipse cx="203.063" cy="358.959" rx="1.20698" ry="0.963043" transform="rotate(-20.3102 203.063 358.959)" fill="url(#paint10_linear)"/>
<path d="M200.881 360.543C201.867 360.489 202.841 360.787 203.629 361.382C204.606 362.245 204.649 364.748 202.902 365.802C201.155 366.856 200.881 360.543 200.881 360.543Z" fill="url(#paint11_linear)"/>
<path d="M203.057 362.796C202.462 361.146 201.024 360.153 199.845 360.578C199.718 360.626 199.598 360.689 199.487 360.767L199.485 360.763L189.133 365.933L191.288 371.909L202 366.554C203.179 366.129 203.652 364.446 203.057 362.796Z" fill="url(#paint12_linear)"/>
<ellipse cx="190.21" cy="368.921" rx="2.2689" ry="3.17643" transform="rotate(-19.8294 190.21 368.921)" fill="url(#paint13_linear)"/>
<path d="M181.453 301.381C181.453 301.381 181.899 308.21 181.448 310.312C180.998 312.413 178.81 313.829 178.81 313.829C178.81 313.829 176.159 310.75 176.096 307.479C176.034 304.207 181.453 301.381 181.453 301.381Z" fill="url(#paint14_linear)"/>
<path d="M177.884 425.148C177.884 425.148 177.279 428.827 177.954 430.229C178.675 431.727 181.102 431.918 183.39 430.7C185.316 429.676 190.701 426.659 190.701 424.595C190.701 422.531 187.31 422.347 184.804 423.268C183.854 423.685 182.859 423.994 181.839 424.19L177.884 425.148Z" fill="#06104E"/>
<path d="M186.926 376.386C186.926 376.386 186.968 381.919 186.926 384.539C186.888 386.961 184.456 419.862 184.087 424.841C184.05 425.386 183.839 425.905 183.486 426.322C182.704 427.211 181.501 427.605 180.345 427.351C179.19 427.096 178.263 426.234 177.927 425.099C177.621 424.101 176.573 388.772 176.152 386.162C175.597 382.723 174.764 376.992 174.764 376.992L186.926 376.386Z" fill="url(#paint15_linear)"/>
<path d="M161.999 419.692C161.999 419.692 161.583 423.337 162.282 424.658C163.028 426.069 165.335 426.073 167.45 424.709C169.231 423.561 174.203 420.203 174.115 418.184C174.027 416.165 170.808 416.24 168.474 417.331C167.596 417.809 166.667 418.186 165.705 418.456L161.999 419.692Z" fill="#06104E"/>
<path d="M175.538 372.275C175.538 372.275 175.05 377.786 174.757 380.391C174.486 382.798 168.911 415.314 168.067 420.235C167.978 420.774 167.718 421.271 167.327 421.652C166.463 422.462 165.228 422.738 164.102 422.374C162.976 422.01 162.136 421.063 161.91 419.901C161.702 418.878 164.045 383.612 163.876 380.973C163.654 377.497 163.338 371.711 163.338 371.711L175.538 372.275Z" fill="url(#paint16_linear)"/>
<path d="M165.694 316.345C165.694 316.345 163.125 315.551 160.009 322.195C156.641 329.376 155.068 334.227 155.14 335.247C155.251 336.82 157.85 347.199 162.56 354.287C167.022 361.001 163.881 348.916 163.881 348.916C163.881 348.916 161.471 338.101 161.082 336.947C161.082 336.947 163.081 332.638 163.913 331.25C164.744 329.863 165.694 316.345 165.694 316.345Z" fill="url(#paint17_linear)"/>
<path d="M185.904 348.916C185.904 348.916 188.133 375.092 187.264 377.558C186.632 379.352 179.575 382.14 173.845 378.082C173.494 377.825 173.268 377.432 173.223 376.999L173.103 375.966C173.103 375.966 165.891 377.377 162.822 371.961C162.883 370.233 162.816 368.502 162.624 366.783C161.874 361.941 161.984 357.004 162.948 352.2L185.904 348.916Z" fill="url(#paint18_linear)"/>
<path d="M167.919 362.421C167.919 362.421 169.389 369.945 169.347 372.95C169.297 373.966 169.347 374.984 169.498 375.99C170.692 376.198 171.913 376.19 173.103 375.966C173.103 375.966 171.503 369.737 170.803 368.212C170.102 366.688 168.496 364.91 167.919 362.421Z" fill="#06104E"/>
<path d="M163.256 328.421C163.256 328.421 163.305 331.844 162.584 333.8C162.584 333.8 165.003 340.18 162.852 352.187C162.852 352.187 162.989 356.703 171.286 357.78C181.184 359.066 186.23 352.93 186.23 352.93L181.339 317.645C181.339 317.645 177.31 316.09 174.238 315.939C171.165 315.787 163.508 325.923 163.256 328.421Z" fill="url(#paint19_linear)"/>
<path d="M168.194 296.952C170.575 295.08 173.668 294.37 176.627 295.017C177.829 295.23 178.949 295.769 179.867 296.574C182.348 298.966 181.999 300.656 181.466 301.543C181.028 302.514 180.762 303.554 180.678 304.616C180.521 305.807 180.014 304.196 179.25 304.372C178.487 304.547 177.637 304.959 177.947 306.524C178.257 308.089 179.31 307.564 179.509 308.846C179.708 310.129 179.103 312.901 179.286 315.978C179.468 319.054 177.479 330.514 171.777 331.924C165.909 333.375 161.18 329.877 162.29 323.318C163.257 317.598 165.935 314.403 165.51 310.162C165.159 306.664 163.306 300.838 168.194 296.952Z" fill="#1E357F"/>
<path d="M180.911 297.75C180.911 297.75 179.242 302.098 175.329 303.531C171.415 304.964 170.22 304.926 169.681 305.587C169.681 305.587 168.666 304.877 168.121 305.738C167.773 305.32 167.351 304.969 166.877 304.702C165.861 304.032 165.222 304.168 164.965 302.766C164.634 304.065 164.659 305.429 165.036 306.715C165.775 307.423 166.753 307.825 167.776 307.841C168.302 308.348 169.124 308.38 169.688 307.915C169.688 307.915 174.401 307.45 176.31 306.473C178.218 305.496 180.66 302.622 181.686 301.078C182.022 299.909 181.728 298.65 180.911 297.75V297.75Z" fill="url(#paint20_linear)"/>
<path d="M181.184 332.824C181.184 332.824 180.094 347.238 182.34 349.651C184.215 351.664 184.454 352.768 185.552 353.627C185.791 353.408 186.017 353.175 186.23 352.93L183.497 333.215C181.42 332.447 181.184 332.824 181.184 332.824Z" fill="#2283D1"/>
<path d="M181.339 317.645C179.756 320.819 179.121 324.382 179.509 327.908C180.007 333.038 181.184 332.824 181.184 332.824C181.184 332.824 182.887 343.33 183.481 345.41C184.076 347.489 189.899 361.603 190.599 362.944C191.299 364.285 191.289 364.765 191.909 365.287C192.506 365.753 193.021 366.314 193.434 366.949C194.566 369.828 193.443 370.837 194.403 370.895C195.363 370.952 195.454 369.801 195.454 369.801C195.454 369.801 195.579 370.19 196.325 370.048C197.698 369.513 198.584 368.169 198.532 366.696C198.483 364.771 197.974 365.032 196.072 362.786C193.988 360.325 189.951 345.887 189.787 344.124C189.622 342.36 188.87 327.773 188.261 324.401C187.652 321.03 184.023 318.278 181.339 317.645Z" fill="url(#paint21_linear)"/>
<path d="M169.688 307.915C170.189 309.417 170.45 310.988 170.46 312.572C170.359 314.685 169.776 317.502 170.299 319.072C170.299 319.072 169.595 316.818 168.045 317.744C168.09 316.374 168.334 315.018 168.769 313.719C169.434 312.028 169.43 308.703 169.12 308.192C168.81 307.681 169.688 307.915 169.688 307.915Z" fill="url(#paint22_linear)"/>
<path d="M168.34 307.862C168.07 308.695 167.738 309.507 167.347 310.291C166.582 311.794 164.141 313.229 163.913 320.273C163.913 320.273 165.388 318.006 167.133 319.072C167.133 319.072 167.133 313.457 168.045 311.713C168.603 310.562 168.861 309.288 168.796 308.01L168.34 307.862Z" fill="url(#paint23_linear)"/>
<path d="M180.8 307.413C180.83 307.753 180.83 308.094 180.8 308.433C180.748 308.901 180.624 308.859 180.728 309.254C180.832 309.649 181.519 309.892 181.519 309.892C181.628 309.186 181.67 308.471 181.644 307.757C181.389 307.587 181.102 307.47 180.8 307.413Z" fill="#F36C68"/>
<path d="M133.763 242.035C133.763 242.035 135.106 247.627 134.621 249.627C134.354 250.783 133.434 251.675 132.27 251.906C132.27 251.906 127.243 254.286 126.086 251.431C124.929 248.576 125.741 242.397 125.741 242.397L133.763 242.035Z" fill="url(#paint24_linear)"/>
<path d="M133.75 235.924C133.75 235.924 136.943 237.016 135.753 239.746C134.564 242.476 132.343 242.473 132.24 242.909C132.137 243.345 132.57 245.299 131.653 244.792C130.735 244.284 130.618 243.124 129.167 243.173C127.716 243.222 126.923 244.014 127.962 245.471C129 246.928 129.715 246.456 129.664 248.174C129.641 249.426 128.888 250.548 127.738 251.043C127.054 251.342 123.93 251.502 122.238 247.507C121.514 245.713 121.281 243.759 121.564 241.845C122.129 239.068 129.37 235.515 133.75 235.924Z" fill="#1E357F"/>
<path d="M133.739 358.111C133.739 358.111 133.207 361.983 133.984 362.889C134.761 363.796 136.073 364.698 138.729 363.823C141.843 362.633 144.529 360.537 146.439 357.804C148.188 354.986 145.69 353.533 142.556 354.597C141.136 355.082 139.747 355.652 138.396 356.306C137.586 356.662 133.739 358.111 133.739 358.111Z" fill="#06104E"/>
<path d="M118.759 351.795C118.759 351.795 118.228 355.667 119.005 356.574C119.782 357.48 121.094 358.382 123.75 357.507C126.864 356.317 129.55 354.221 131.46 351.488C133.208 348.67 130.711 347.217 127.577 348.281C126.157 348.766 124.768 349.336 123.417 349.99C122.607 350.346 118.759 351.795 118.759 351.795Z" fill="#06104E"/>
<path d="M138.547 291.816C138.547 291.816 141.331 317.401 141.401 322.726C141.467 327.708 140.828 350.62 140.336 357.508C140.276 358.444 139.773 359.295 138.983 359.799C138.263 360.259 137.43 360.513 136.576 360.532C134.995 360.561 134.459 360.024 134.459 360.024V360.024C133.893 359.7 133.522 359.117 133.469 358.467C133.411 357.748 133.344 356.921 133.344 356.921C133.343 356.908 130.724 323.841 130.475 322.26C130.225 320.68 128.478 313.857 128.478 313.857C128.478 313.857 128.469 318.068 128.473 320.971C128.477 323.542 126.258 346.613 125.751 351.691C125.679 352.449 125.264 353.133 124.626 353.549C123.421 354.331 121.315 355.077 119.191 352.88C118.849 352.522 118.66 352.043 118.665 351.547C118.69 347.193 118.798 323.687 118.328 317.047C117.807 309.696 115.856 299.36 117.662 289.234L138.547 291.816Z" fill="url(#paint25_linear)"/>
<path d="M125.649 308.033C124.408 305.896 123.323 303.672 122.405 301.377C122.405 301.377 123.569 309.531 125.441 313.524C127.313 317.518 125.538 325.212 127.84 329.31C128.208 325.551 128.475 321.862 128.473 320.971C128.47 318.068 128.478 313.857 128.478 313.857C127.64 311.867 126.695 309.923 125.649 308.033V308.033Z" fill="#06104E"/>
<path d="M114.463 268.593C114.358 270.096 114.334 271.604 114.389 273.11C114.5 275.104 116.255 281.619 117.077 284.08C117.899 286.542 117.433 269.294 117.433 269.294L114.463 268.593Z" fill="url(#paint26_linear)"/>
<path d="M139.237 276.434C140.68 277.398 142.177 278.277 143.721 279.067C145.055 279.626 147.239 280.286 150.59 277.299C153.94 274.312 161.232 267.224 161.474 267.066C161.716 266.909 163.56 267.13 165.1 266.283C166.305 265.731 167.007 264.457 166.829 263.144C166.63 262.271 166.449 261.974 166.655 261.659C166.862 261.343 168.724 259.696 168.583 259.092C168.442 258.488 166.644 259.188 164.868 260.331C163.092 261.474 161.924 260.949 161.649 261.518C161.373 262.087 159.845 263.19 158.004 264.698C154.699 267.029 151.258 269.161 147.699 271.081C147.286 271.143 144.489 268.877 144.489 268.877L139.237 276.434Z" fill="url(#paint27_linear)"/>
<path d="M136.796 258.668C136.796 258.668 142.325 265.058 144.502 268.56C144.502 268.56 144.46 276.031 138.625 276.515L136.67 275.168C136.67 275.168 137.401 285.152 138.027 287.712C138.654 290.272 139.417 293.067 137.329 294.628C135.24 296.189 128.936 297.86 123.999 295.985C118.126 293.753 117.372 291.202 117.107 289.549C116.842 287.896 116.8 281.484 116.496 275.668L116.192 269.852C115.351 269.659 114.567 269.27 113.905 268.717C113.905 268.717 114.87 260.054 116.152 256.442C117.023 253.989 118.459 250.876 121.008 251.133L136.796 258.668Z" fill="url(#paint28_linear)"/>
<path d="M133.718 278.369C135.524 281.717 134.743 284.535 137.683 285.702C137.161 281.873 136.67 275.168 136.67 275.168L132.211 270.747C132.038 273.375 132.558 276.004 133.718 278.369V278.369Z" fill="#2283D1"/>
<path d="M133.457 233.6C135.217 235.717 133.429 240.194 129.461 243.598C125.494 247.003 120.851 248.047 119.091 245.93C117.33 243.812 119.119 239.336 123.086 235.931C127.053 232.526 131.697 231.482 133.457 233.6Z" fill="url(#paint29_linear)"/>
<path d="M130.57 235.155C131.833 236.674 130.549 239.886 127.703 242.329C124.856 244.772 121.525 245.521 120.262 244.001C118.999 242.482 120.283 239.271 123.129 236.828C125.976 234.385 129.307 233.636 130.57 235.155Z" fill="#F6BD63"/>
<path d="M120.069 243.719L117.912 240.817L112.21 237.505L122.437 224.745C122.437 224.745 127.657 230.892 128.126 231.519C128.594 232.147 130.57 235.155 130.57 235.155L120.069 243.719Z" fill="url(#paint30_linear)"/>
<path d="M122.437 224.745C124.246 226.263 123.363 230.307 120.465 233.777C117.566 237.248 113.749 238.831 111.939 237.313C110.13 235.796 111.013 231.752 113.912 228.282C116.811 224.811 120.627 223.228 122.437 224.745Z" fill="url(#paint31_linear)"/>
<path d="M121.024 250.914C121.024 250.914 119.307 252.87 118.883 257.765C118.459 262.659 118.635 268.731 118.635 268.731C119.772 269.001 120.829 269.533 121.722 270.286C123.614 271.691 125.118 270.951 125.118 270.951C125.118 270.951 124.572 260.773 124.5 258.486C124.428 257.385 124.484 256.28 124.667 255.193L121.024 250.914Z" fill="url(#paint32_linear)"/>
<path d="M122.29 247.628C122.29 247.628 123.418 250.945 126.933 251.271C130.448 251.596 132.634 251.127 133.805 251.93C134.977 252.733 136.39 253.846 136.796 258.668C136.796 258.668 135.057 257.595 131.321 257.44C127.584 257.284 121.805 254.916 121.024 250.914C121.024 250.914 120.881 248.614 122.29 247.628Z" fill="url(#paint33_linear)"/>
<path d="M118.952 268.43V270.871" stroke="white" stroke-width="0.75" stroke-linecap="round" stroke-linejoin="round"/>
<path d="M120.907 269.151V271.592" stroke="white" stroke-width="0.75" stroke-linecap="round" stroke-linejoin="round"/>
<path d="M122.862 269.872V272.313" stroke="white" stroke-width="0.75" stroke-linecap="round" stroke-linejoin="round"/>
<path d="M124.817 270.594V273.034" stroke="white" stroke-width="0.75" stroke-linecap="round" stroke-linejoin="round"/>
<path d="M190.99 212.913C190.897 214.029 190.101 214.532 189.214 214.035C188.25 213.386 187.703 212.275 187.775 211.116C187.869 209.999 188.664 209.496 189.551 209.993C190.515 210.642 191.062 211.753 190.99 212.913V212.913Z" fill="#1D2E81"/>
<path d="M185.62 209.607C185.527 210.723 184.732 211.226 183.844 210.73C182.881 210.08 182.333 208.969 182.406 207.81C182.499 206.693 183.294 206.19 184.182 206.687C185.145 207.336 185.693 208.447 185.62 209.607V209.607Z" fill="#1D2E81"/>
<path d="M180.251 206.301C180.157 207.417 179.362 207.92 178.475 207.424C177.511 206.774 176.964 205.663 177.036 204.504C177.13 203.387 177.925 202.884 178.812 203.381C179.776 204.03 180.323 205.141 180.251 206.301V206.301Z" fill="#1D2E81"/>
<path d="M161.15 185.303L182.327 197.497C183.259 198.033 184.013 197.501 184.013 196.31C183.981 195.058 183.355 193.896 182.327 193.181L161.15 180.988C160.218 180.451 159.464 180.983 159.464 182.175C159.496 183.427 160.122 184.589 161.15 185.303V185.303Z" fill="#F57A76"/>
<path d="M178.413 260.147L180.623 262.848L180.201 259.607L181.988 258.528L179.518 256.652L178.413 253.284L177.308 255.364L174.837 254.363L176.625 257.524L176.203 260.273L178.413 260.147V260.147Z" fill="#F2F2F2"/>
<path d="M170.31 255.364L172.52 258.065L172.098 254.825L173.886 253.746L171.415 251.869L170.31 248.501L169.205 250.582L166.734 249.58L168.522 252.743L168.1 255.491L170.31 255.364V255.364Z" fill="#F2F2F2"/>
<path d="M162.208 250.582L164.417 253.284L163.995 250.043L165.783 248.963L163.312 247.087L162.208 243.719L161.102 245.8L158.631 244.798L160.419 247.96L159.997 250.709L162.208 250.582V250.582Z" fill="#F2F2F2"/>
<path d="M238.209 294.786L240.573 297.676L240.122 294.208L242.034 293.053L239.391 291.046L238.209 287.441L237.026 289.668L234.382 288.596L236.295 291.979L235.844 294.921L238.209 294.786V294.786Z" fill="#F2F2F2"/>
<path d="M229.538 289.668L231.903 292.558L231.451 289.091L233.364 287.936L230.72 285.928L229.538 282.324L228.356 284.551L225.711 283.478L227.625 286.862L227.173 289.804L229.538 289.668V289.668Z" fill="#F2F2F2"/>
<path fill-rule="evenodd" clip-rule="evenodd" d="M170.814 220.605C165.787 217.705 161.697 220.044 161.697 225.819C161.697 231.594 165.787 238.651 170.814 241.551C175.842 244.451 179.932 242.111 179.932 236.337C179.932 230.562 175.842 223.504 170.814 220.605ZM173.014 241.117L168.36 238.451L166.89 234.982L168.994 233.22L172.702 235.358L174.658 239.594L173.014 241.117ZM164.392 225.098L162.648 226.62L164.128 232.252L166.694 234.736L168.846 232.932L167.759 228.323L164.392 225.098ZM168.059 220.601L170.644 223.292V227.43L167.824 228.112L164.474 224.903V221.795L168.059 220.601ZM177.215 229.109L173.567 224.069L170.87 223.424V227.375L170.884 227.372L174.019 231.83L177.112 232.19L177.215 229.109ZM177.54 240.304L174.833 239.532L172.919 235.385L174.086 232.118L177.15 232.473L178.769 235.944L177.54 240.304ZM177.46 229.131L178.444 230.24C177.214 227.141 175.252 224.385 172.727 222.208L173.341 223.441L177.46 229.131ZM168.666 219.928L168.031 220.28L164.335 221.51L163.217 221.394C164.419 219.823 166.367 219.26 168.666 219.928ZM162.309 226.1L161.954 225.135C161.935 225.398 161.922 225.669 161.922 225.949C162.007 228.698 162.737 231.388 164.054 233.803L163.984 232.477L162.307 226.1L162.309 226.1ZM167.247 238.373L168.54 238.874L168.505 238.793L173.184 241.474L174.327 242.485C173.082 242.351 171.883 241.944 170.814 241.292C169.486 240.502 168.284 239.519 167.247 238.373ZM177.756 240.503L177.589 241.59C178.908 240.569 179.706 238.723 179.706 236.206C179.706 235.891 179.692 235.572 179.667 235.25L178.986 236.141L177.756 240.503Z" fill="#F2F2F2"/>
<path fill-rule="evenodd" clip-rule="evenodd" d="M235.044 258.567C230.017 255.668 225.926 258.007 225.926 263.782C225.926 269.557 230.017 276.614 235.044 279.514C240.072 282.413 244.162 280.074 244.162 274.299C244.162 268.524 240.072 261.467 235.044 258.567ZM237.244 279.08L232.59 276.413L231.12 272.945L233.223 271.182L236.932 273.321L238.888 277.557L237.244 279.08ZM228.622 263.06L226.878 264.583L228.358 270.214L230.924 272.698L233.076 270.895L231.989 266.285L228.622 263.06ZM232.289 258.564L234.874 261.255V265.393L232.054 266.074L228.704 262.866V259.757L232.289 258.564ZM241.445 267.072L237.797 262.031L235.1 261.387V265.338L235.114 265.335L238.249 269.793L241.342 270.152L241.445 267.072ZM241.77 278.267L239.063 277.494L237.149 273.348L238.316 270.08L241.38 270.436L242.999 273.907L241.77 278.267ZM241.69 267.093L242.674 268.203C241.444 265.104 239.482 262.348 236.957 260.171L237.571 261.403L241.69 267.093ZM232.896 257.891L232.261 258.243L228.565 259.473L227.447 259.357C228.649 257.785 230.597 257.223 232.896 257.891ZM226.539 264.063L226.184 263.097V263.097C226.165 263.361 226.152 263.631 226.152 263.912C226.237 266.661 226.967 269.351 228.284 271.765L228.214 270.44L226.537 264.063L226.539 264.063ZM231.477 276.336L232.77 276.837L232.735 276.756L237.414 279.437L238.557 280.448C237.312 280.314 236.113 279.906 235.044 279.254C233.716 278.465 232.514 277.482 231.477 276.336ZM241.986 278.466L241.819 279.553C243.138 278.531 243.936 276.686 243.936 274.169C243.936 273.854 243.922 273.535 243.897 273.213L243.216 274.103L241.986 278.466Z" fill="#F2F2F2"/>
<g opacity="0.775577" filter="url(#filter0_d)">
<rect x="78.5" y="713" width="216" height="43" rx="5" fill="black" fill-opacity="0.01"/>
</g>
<rect x="35" y="696" width="303" height="50" rx="3" fill="white"/>
<text fill="#173477" xml:space="preserve" style="white-space: pre" font-family="Nunito Sans" font-size="12" font-weight="bold" letter-spacing="2.17108px"><tspan x="166.5" y="724.948">NEXT</tspan></text>
</g>
<defs>
<filter id="filter0_d" x="46.5" y="695" width="280" height="107" filterUnits="userSpaceOnUse" color-interpolation-filters="sRGB">
<feFlood flood-opacity="0" result="BackgroundImageFix"/>
<feColorMatrix in="SourceAlpha" type="matrix" values="0 0 0 0 0 0 0 0 0 0 0 0 0 0 0 0 0 0 127 0"/>
<feOffset dy="14"/>
<feGaussianBlur stdDeviation="16"/>
<feColorMatrix type="matrix" values="0 0 0 0 0 0 0 0 0 0 0 0 0 0 0 0 0 0 0.157042 0"/>
<feBlend mode="normal" in2="BackgroundImageFix" result="effect1_dropShadow"/>
<feBlend mode="normal" in="SourceGraphic" in2="effect1_dropShadow" result="shape"/>
</filter>
<linearGradient id="paint0_linear" x1="299.992" y1="-683.487" x2="-458.148" y2="-326.488" gradientUnits="userSpaceOnUse">
<stop stop-color="#859FEE"/>
<stop offset="0.254068" stop-color="#728AD6"/>
<stop offset="1" stop-color="#6780EE"/>
</linearGradient>
<linearGradient id="paint1_linear" x1="65.3666" y1="157.733" x2="65.3666" y2="402" gradientUnits="userSpaceOnUse">
<stop stop-color="white" stop-opacity="0.01"/>
<stop offset="1" stop-color="white" stop-opacity="0.192499"/>
</linearGradient>
<linearGradient id="paint2_linear" x1="340.5" y1="402" x2="340.5" y2="96" gradientUnits="userSpaceOnUse">
<stop stop-color="white"/>
<stop offset="1" stop-color="white" stop-opacity="0.01"/>
</linearGradient>
<linearGradient id="paint3_linear" x1="237.884" y1="164.19" x2="159.51" y2="157.381" gradientUnits="userSpaceOnUse">
<stop stop-color="#3453BE"/>
<stop offset="1" stop-color="#21398B"/>
</linearGradient>
<linearGradient id="paint4_linear" x1="150.147" y1="154.576" x2="150.147" y2="361.438" gradientUnits="userSpaceOnUse">
<stop stop-color="#628AE0"/>
<stop offset="1" stop-color="#3352BD"/>
</linearGradient>
<linearGradient id="paint5_linear" x1="155.632" y1="41.5424" x2="31.009" y2="272.749" gradientUnits="userSpaceOnUse">
<stop stop-color="#E4EAF9"/>
<stop offset="1" stop-color="white"/>
</linearGradient>
<linearGradient id="paint6_linear" x1="152.533" y1="297.911" x2="152.533" y2="346.671" gradientUnits="userSpaceOnUse">
<stop stop-color="#F99995"/>
<stop offset="1" stop-color="#F1605C"/>
</linearGradient>
<linearGradient id="paint7_linear" x1="189.158" y1="-58.4878" x2="-59.1276" y2="76.4753" gradientUnits="userSpaceOnUse">
<stop stop-color="#F1615E"/>
<stop offset="0.0371413" stop-color="#88CDEA"/>
<stop offset="0.258113" stop-color="#2944A0"/>
<stop offset="0.290096" stop-color="#6A82FE"/>
<stop offset="0.345242" stop-color="#5277D4"/>
<stop offset="0.703633" stop-color="#2B46A5"/>
<stop offset="0.848972" stop-color="#19198B"/>
<stop offset="1" stop-color="#677FFE"/>
</linearGradient>
<linearGradient id="paint8_linear" x1="236.781" y1="158.586" x2="133.636" y2="219.839" gradientUnits="userSpaceOnUse">
<stop stop-color="#95C3F9"/>
<stop offset="1" stop-color="#5CA6F1"/>
</linearGradient>
<linearGradient id="paint9_linear" x1="201.18" y1="356.45" x2="201.18" y2="370.025" gradientUnits="userSpaceOnUse">
<stop stop-color="#F99995"/>
<stop offset="1" stop-color="#F1605C"/>
</linearGradient>
<linearGradient id="paint10_linear" x1="201.636" y1="357.645" x2="201.636" y2="359.922" gradientUnits="userSpaceOnUse">
<stop stop-color="#F99995"/>
<stop offset="1" stop-color="#F1605C"/>
</linearGradient>
<linearGradient id="paint11_linear" x1="204.615" y1="359.557" x2="200.57" y2="359.557" gradientUnits="userSpaceOnUse">
<stop stop-color="#F99995"/>
<stop offset="1" stop-color="#F1605C"/>
</linearGradient>
<linearGradient id="paint12_linear" x1="187.842" y1="358.399" x2="187.842" y2="371.909" gradientUnits="userSpaceOnUse">
<stop stop-color="#F99995"/>
<stop offset="1" stop-color="#F1605C"/>
</linearGradient>
<linearGradient id="paint13_linear" x1="192.892" y1="364.588" x2="187.529" y2="364.588" gradientUnits="userSpaceOnUse">
<stop stop-color="#F99995"/>
<stop offset="1" stop-color="#F1605C"/>
</linearGradient>
<linearGradient id="paint14_linear" x1="176.096" y1="301.381" x2="176.096" y2="313.829" gradientUnits="userSpaceOnUse">
<stop stop-color="#FAC0A6"/>
<stop offset="1" stop-color="#FCB49B"/>
</linearGradient>
<linearGradient id="paint15_linear" x1="174.764" y1="376.386" x2="174.764" y2="427.427" gradientUnits="userSpaceOnUse">
<stop stop-color="#FAC0A6"/>
<stop offset="1" stop-color="#FCB49B"/>
</linearGradient>
<linearGradient id="paint16_linear" x1="161.897" y1="371.711" x2="161.897" y2="422.532" gradientUnits="userSpaceOnUse">
<stop stop-color="#FAC0A6"/>
<stop offset="1" stop-color="#FCB49B"/>
</linearGradient>
<linearGradient id="paint17_linear" x1="155.138" y1="316.315" x2="155.138" y2="356.318" gradientUnits="userSpaceOnUse">
<stop stop-color="#FAC0A6"/>
<stop offset="1" stop-color="#FCB49B"/>
</linearGradient>
<linearGradient id="paint18_linear" x1="188.798" y1="376.238" x2="188.798" y2="355.719" gradientUnits="userSpaceOnUse">
<stop stop-color="#19198B"/>
<stop offset="1" stop-color="#1E347F"/>
</linearGradient>
<linearGradient id="paint19_linear" x1="162.584" y1="315.937" x2="162.584" y2="357.958" gradientUnits="userSpaceOnUse">
<stop stop-color="#69C6FF"/>
<stop offset="1" stop-color="#3895FF"/>
</linearGradient>
<linearGradient id="paint20_linear" x1="174.551" y1="292.978" x2="165.775" y2="306.35" gradientUnits="userSpaceOnUse">
<stop stop-color="#E9DBBE"/>
<stop offset="1" stop-color="#FFA721"/>
</linearGradient>
<linearGradient id="paint21_linear" x1="179.398" y1="317.645" x2="179.398" y2="370.897" gradientUnits="userSpaceOnUse">
<stop stop-color="#FAC0A6"/>
<stop offset="1" stop-color="#FCB49B"/>
</linearGradient>
<linearGradient id="paint22_linear" x1="169.432" y1="302.763" x2="165.473" y2="303.561" gradientUnits="userSpaceOnUse">
<stop stop-color="#E9DBBE"/>
<stop offset="1" stop-color="#FFA721"/>
</linearGradient>
<linearGradient id="paint23_linear" x1="166.724" y1="302.217" x2="159.376" y2="304.928" gradientUnits="userSpaceOnUse">
<stop stop-color="#E9DBBE"/>
<stop offset="1" stop-color="#FFA721"/>
</linearGradient>
<linearGradient id="paint24_linear" x1="125.464" y1="242.035" x2="125.464" y2="252.836" gradientUnits="userSpaceOnUse">
<stop stop-color="#FAC0A6"/>
<stop offset="1" stop-color="#FCB49B"/>
</linearGradient>
<linearGradient id="paint25_linear" x1="142.695" y1="351.558" x2="142.695" y2="304.752" gradientUnits="userSpaceOnUse">
<stop stop-color="#19198B"/>
<stop offset="1" stop-color="#1E347F"/>
</linearGradient>
<linearGradient id="paint26_linear" x1="114.36" y1="268.593" x2="114.36" y2="284.321" gradientUnits="userSpaceOnUse">
<stop stop-color="#FAC0A6"/>
<stop offset="1" stop-color="#FCB49B"/>
</linearGradient>
<linearGradient id="paint27_linear" x1="139.237" y1="258.87" x2="139.237" y2="279.547" gradientUnits="userSpaceOnUse">
<stop stop-color="#FAC0A6"/>
<stop offset="1" stop-color="#FCB49B"/>
</linearGradient>
<linearGradient id="paint28_linear" x1="113.905" y1="251.118" x2="113.905" y2="296.815" gradientUnits="userSpaceOnUse">
<stop stop-color="#69C6FF"/>
<stop offset="1" stop-color="#3895FF"/>
</linearGradient>
<linearGradient id="paint29_linear" x1="126.525" y1="251.467" x2="139.761" y2="238.059" gradientUnits="userSpaceOnUse">
<stop stop-color="#E9DBBE"/>
<stop offset="1" stop-color="#FFA721"/>
</linearGradient>
<linearGradient id="paint30_linear" x1="122.757" y1="216.117" x2="105.546" y2="231.7" gradientUnits="userSpaceOnUse">
<stop stop-color="#E9DBBE"/>
<stop offset="1" stop-color="#FFA721"/>
</linearGradient>
<linearGradient id="paint31_linear" x1="118.436" y1="244.77" x2="135.767" y2="232.503" gradientUnits="userSpaceOnUse">
<stop stop-color="#E9DBBE"/>
<stop offset="1" stop-color="#FFA721"/>
</linearGradient>
<linearGradient id="paint32_linear" x1="118.006" y1="247.232" x2="118.006" y2="271.146" gradientUnits="userSpaceOnUse">
<stop stop-color="#F99995"/>
<stop offset="1" stop-color="#F1605C"/>
</linearGradient>
<linearGradient id="paint33_linear" x1="119.584" y1="245.619" x2="119.584" y2="258.668" gradientUnits="userSpaceOnUse">
<stop stop-color="#F99995"/>
<stop offset="1" stop-color="#F1605C"/>
</linearGradient>
<clipPath id="clip0">
<rect width="375" height="812" fill="white"/>
</clipPath>
</defs>
</svg>
